<svg width="100%" height="100%" viewBox="0 0 40 40" fill="none" xmlns="http://www.w3.org/2000/svg">
<path fill-rule="evenodd" clip-rule="evenodd" d="M1.7648 0.195909C2.67956 -0.261474 3.79191 0.109308 4.24929 1.02407L6.88557 6.29664L25.6876 6.29664C28.3688 6.29658 30.5673 6.29653 32.3047 6.53011C34.1238 6.77467 35.712 7.30543 36.9812 8.57467C38.2505 9.84392 38.7812 11.4321 39.0258 13.2512C39.2594 14.9886 39.2593 17.1871 39.2592 19.8684V22.1762L15.699 31.6741L4.08861 8.98435L0.936631 2.6804C0.479249 1.76564 0.850031 0.653292 1.7648 0.195909ZM8.76886 10.0003L17.4539 26.9733L35.5555 19.676C35.555 17.0053 35.5441 15.1501 35.3551 13.7447C35.1658 12.3363 34.8287 11.66 34.3623 11.1936C33.8959 10.7272 33.2196 10.3901 31.8112 10.2007C30.3496 10.0042 28.4015 10.0003 25.5557 10.0003L8.76886 10.0003Z" fill="url(#cart_paint0_linear)"/>
<path fill-rule="evenodd" clip-rule="evenodd" d="M8.33364 32.5927C7.3109 32.5927 6.48181 33.4218 6.48181 34.4445C6.48181 35.4672 7.3109 36.2963 8.33364 36.2963C9.35638 36.2963 10.1855 35.4672 10.1855 34.4445C10.1855 33.4218 9.35638 32.5927 8.33364 32.5927ZM2.77814 34.4445C2.77814 31.3763 5.26543 28.889 8.33364 28.889C11.4019 28.889 13.8891 31.3763 13.8891 34.4445C13.8891 37.5127 11.4019 40 8.33364 40C5.26543 40 2.77814 37.5127 2.77814 34.4445Z" fill="url(#cart_paint1_linear)"/>
<path fill-rule="evenodd" clip-rule="evenodd" d="M30.5556 32.5927C29.5329 32.5927 28.7038 33.4218 28.7038 34.4445C28.7038 35.4672 29.5329 36.2963 30.5556 36.2963C31.5784 36.2963 32.4075 35.4672 32.4075 34.4445C32.4075 33.4218 31.5784 32.5927 30.5556 32.5927ZM25.0001 34.4445C25.0001 31.3763 27.4874 28.889 30.5556 28.889C33.6239 28.889 36.1111 31.3763 36.1111 34.4445C36.1111 37.5127 33.6239 40 30.5556 40C27.4874 40 25.0001 37.5127 25.0001 34.4445Z" fill="url(#cart_paint2_linear)"/>
<defs>
<linearGradient id="cart_paint0_linear" x1="20" y1="0" x2="20" y2="40" gradientUnits="userSpaceOnUse">
<stop stop-color="#291AD5"/>
<stop offset="1" stop-color="#681DE1"/>
</linearGradient>
<linearGradient id="cart_paint1_linear" x1="20" y1="0" x2="20" y2="40" gradientUnits="userSpaceOnUse">
<stop stop-color="#291AD5"/>
<stop offset="1" stop-color="#681DE1"/>
</linearGradient>
<linearGradient id="cart_paint2_linear" x1="20" y1="0" x2="20" y2="40" gradientUnits="userSpaceOnUse">
<stop stop-color="#291AD5"/>
<stop offset="1" stop-color="#681DE1"/>
</linearGradient>
</defs>
</svg>
