<svg width="100%" height="100%" viewBox="0 0 40 40" fill="none" xmlns="http://www.w3.org/2000/svg">
<path fill-rule="evenodd" clip-rule="evenodd" d="M1.76474 0.195909C2.6795 -0.261474 3.79185 0.109308 4.24923 1.02407L6.88551 6.29664L25.6875 6.29664C28.3687 6.29658 30.5673 6.29652 32.3047 6.53011C34.1237 6.77467 35.7119 7.30543 36.9811 8.57467C38.2504 9.84392 38.7811 11.4321 39.0257 13.2512C39.2593 14.9886 39.2592 17.1871 39.2592 19.8684V22.1762L15.6989 31.6741L4.08854 8.98435L0.93657 2.6804C0.479188 1.76564 0.84997 0.653292 1.76474 0.195909ZM8.76879 10.0003L17.4539 26.9733L35.5555 19.676C35.5549 17.0053 35.544 15.1501 35.3551 13.7447C35.1657 12.3363 34.8287 11.66 34.3623 11.1936C33.8959 10.7272 33.2195 10.3901 31.8112 10.2007C30.3495 10.0042 28.4014 10.0003 25.5556 10.0003L8.76879 10.0003Z" fill="url(#paint0_linear)"/>
<path fill-rule="evenodd" clip-rule="evenodd" d="M8.33358 32.5927C7.31084 32.5927 6.48175 33.4218 6.48175 34.4445C6.48175 35.4672 7.31084 36.2963 8.33358 36.2963C9.35632 36.2963 10.1854 35.4672 10.1854 34.4445C10.1854 33.4218 9.35632 32.5927 8.33358 32.5927ZM2.77808 34.4445C2.77808 31.3763 5.26536 28.889 8.33358 28.889C11.4018 28.889 13.8891 31.3763 13.8891 34.4445C13.8891 37.5127 11.4018 40 8.33358 40C5.26536 40 2.77808 37.5127 2.77808 34.4445Z" fill="url(#paint1_linear)"/>
<path fill-rule="evenodd" clip-rule="evenodd" d="M30.5556 32.5927C29.5328 32.5927 28.7037 33.4218 28.7037 34.4445C28.7037 35.4672 29.5328 36.2963 30.5556 36.2963C31.5783 36.2963 32.4074 35.4672 32.4074 34.4445C32.4074 33.4218 31.5783 32.5927 30.5556 32.5927ZM25.0001 34.4445C25.0001 31.3763 27.4874 28.889 30.5556 28.889C33.6238 28.889 36.1111 31.3763 36.1111 34.4445C36.1111 37.5127 33.6238 40 30.5556 40C27.4874 40 25.0001 37.5127 25.0001 34.4445Z" fill="url(#paint2_linear)"/>
<defs>
<linearGradient id="paint0_linear_icon" x1="19.9999" y1="0" x2="19.9999" y2="40" gradientUnits="userSpaceOnUse">
<stop stop-color="#291AD5"/>
<stop offset="1" stop-color="#681DE1"/>
</linearGradient>
<linearGradient id="paint1_linear_icon" x1="19.9999" y1="0" x2="19.9999" y2="40" gradientUnits="userSpaceOnUse">
<stop stop-color="#291AD5"/>
<stop offset="1" stop-color="#681DE1"/>
</linearGradient>
<linearGradient id="paint2_linear_icon" x1="19.9999" y1="0" x2="19.9999" y2="40" gradientUnits="userSpaceOnUse">
<stop stop-color="#291AD5"/>
<stop offset="1" stop-color="#681DE1"/>
</linearGradient>
</defs>
</svg>
