<svg width="100%" height="100%" viewBox="0 0 40 40" fill="none" xmlns="http://www.w3.org/2000/svg">
<path fill-rule="evenodd" clip-rule="evenodd" d="M21.8535 5.92153L14.8236 0.68153L11.3556 8.73443L2.67952 10L5.92151 18.1466L0.681507 25.1764L8.73441 28.6445L10 37.3205L18.1465 34.0786L25.1764 39.3186L28.6444 31.2657L37.3205 30L34.0785 21.8535L39.3185 14.8237L31.2656 11.3556L30 2.67954L21.8535 5.92153ZM26.4145 8.8899L21.1889 10.9695L16.6797 7.60829L14.4551 12.7738L8.88987 13.5856L10.9694 18.8111L7.60826 23.3204L12.7738 25.545L13.5856 31.1102L18.8111 29.0306L23.3204 32.3918L25.5449 27.2263L31.1102 26.4145L29.0306 21.1889L32.3918 16.6797L27.2263 14.4551L26.4145 8.8899Z" fill="url(#paint0_linear_char_icon)"/>
<path fill-rule="evenodd" clip-rule="evenodd" d="M20.7669 22.862C22.3475 22.4385 23.2856 20.8138 22.862 19.2332C22.4385 17.6525 20.8138 16.7145 19.2332 17.138C17.6525 17.5616 16.7145 19.1863 17.138 20.7669C17.5616 22.3476 19.1863 23.2856 20.7669 22.862ZM21.9172 27.155C25.8688 26.0962 28.2139 22.0345 27.155 18.0829C26.0962 14.1313 22.0344 11.7862 18.0828 12.845C14.1312 13.9039 11.7862 17.9656 12.845 21.9172C13.9038 25.8688 17.9656 28.2139 21.9172 27.155Z" fill="url(#paint1_linear_char_icon)"/>
<defs>
<linearGradient id="paint0_linear_char_icon" x1="14.8236" y1="0.68153" x2="25.1764" y2="39.3186" gradientUnits="userSpaceOnUse">
<stop stop-color="#291AD5"/>
<stop offset="1" stop-color="#681DE1"/>
</linearGradient>
<linearGradient id="paint1_linear_char_icon" x1="14.8236" y1="0.68153" x2="25.1764" y2="39.3186" gradientUnits="userSpaceOnUse">
<stop stop-color="#291AD5"/>
<stop offset="1" stop-color="#681DE1"/>
</linearGradient>
</defs>
</svg>
