<svg width="38" height="40" viewBox="0 0 38 40" fill="none" xmlns="http://www.w3.org/2000/svg">
<path fill-rule="evenodd" clip-rule="evenodd" d="M4.92589 12.5926V32.5926C4.92589 34.229 6.25245 35.5556 7.88885 35.5556H30.1111C31.7475 35.5556 33.074 34.229 33.074 32.5926V12.5926H4.92589ZM37.5185 10.3704V32.5926C37.5185 36.6836 34.2021 40 30.1111 40H7.88885C3.79785 40 0.481445 36.6836 0.481445 32.5926V10.3704L10.8518 0H27.1481L37.5185 10.3704ZM29.0109 8.14815L25.3072 4.44444H12.6928L8.98906 8.14815H29.0109Z" fill="url(#paint0_linear_delivery_icon)"/>
<path d="M16.7777 0H21.2222L23.4444 10H14.9259L16.7777 0Z" fill="url(#paint1_linear_delivery_icon)"/>
<path d="M15.2963 10.7407H23.074V22.5926H15.2963V10.7407Z" fill="url(#paint2_linear_delivery_icon)"/>
<defs>
<linearGradient id="paint0_linear_delivery_icon" x1="19" y1="0" x2="19" y2="40" gradientUnits="userSpaceOnUse">
<stop stop-color="#291AD5"/>
<stop offset="1" stop-color="#681DE1"/>
</linearGradient>
<linearGradient id="paint1_linear_delivery_icon" x1="19" y1="0" x2="19" y2="40" gradientUnits="userSpaceOnUse">
<stop stop-color="#291AD5"/>
<stop offset="1" stop-color="#681DE1"/>
</linearGradient>
<linearGradient id="paint2_linear_delivery_icon" x1="19" y1="0" x2="19" y2="40" gradientUnits="userSpaceOnUse">
<stop stop-color="#291AD5"/>
<stop offset="1" stop-color="#681DE1"/>
</linearGradient>
</defs>
</svg>
