<svg width="70" height="70" viewBox="0 0 70 70" fill="none" xmlns="http://www.w3.org/2000/svg">
<rect width="70" height="70" rx="28" fill="#F1ADAD"/>
<path fill-rule="evenodd" clip-rule="evenodd" d="M26.1111 28.8727C26.1111 23.9724 30.0835 20 34.9838 20C39.8841 20 43.8565 23.9725 43.8565 28.8727V37.9774C43.8565 41.1379 41.2943 43.7001 38.1337 43.7001C34.9731 43.7001 32.411 41.1379 32.411 37.9773V26.931H35.7443V37.9773C35.7443 39.297 36.8141 40.3668 38.1337 40.3668C39.4534 40.3668 40.5232 39.297 40.5232 37.9774V28.8727C40.5232 25.8134 38.0431 23.3333 34.9838 23.3333C31.9245 23.3333 29.4444 25.8134 29.4444 28.8727V39.1905C29.4444 43.3195 32.7916 46.6667 36.9206 46.6667H42.1898V50H36.9206C30.9507 50 26.1111 45.1604 26.1111 39.1905V28.8727Z" fill="white"/>
</svg>
