<svg width="100%" height="100%" viewBox="0 0 36 32" fill="none" xmlns="http://www.w3.org/2000/svg">
<path fill-rule="evenodd" clip-rule="evenodd" d="M0.477243 6.77067C2.85558 -0.0313629 11.9053 -1.34249 16.1163 4.50486L18.0223 7.15152L19.4603 4.95398C23.4325 -1.11645 32.5814 -0.253346 35.3483 6.45283C36.6544 9.61853 35.9624 13.2572 33.5853 15.7224L18.0976 31.7837L2.38506 15.4892C0.154528 13.176 -0.583358 9.80399 0.477243 6.77067ZM13.0215 6.73363C10.6132 3.38949 5.43756 4.13934 4.07738 8.02946C3.49195 9.70377 3.89925 11.5651 5.13044 12.8419L18.0976 26.2893L30.8399 13.075C32.1651 11.7007 32.5509 9.67226 31.8227 7.90743C30.2256 4.03639 24.9445 3.53819 22.6516 7.04225L18.1728 13.8868L13.0215 6.73363Z" fill="url(#paint0_linear)"/>
<defs>
<linearGradient id="paint0_linear" x1="18" y1="0.800003" x2="18" y2="31.7836" gradientUnits="userSpaceOnUse">
<stop stop-color="#291AD5"/>
<stop offset="1" stop-color="#681DE1"/>
</linearGradient>
</defs>
</svg>
