<svg width="100%" height="100%" viewBox="0 0 20 25" fill="none" xmlns="http://www.w3.org/2000/svg">
<path fill-rule="evenodd" clip-rule="evenodd" d="M2.77897 4.5V5.72222C2.77897 9.71095 6.01247 12.9444 10.0012 12.9444C13.9899 12.9444 17.2234 9.71095 17.2234 5.72222V4.5H19.8901V5.72222C19.8901 11.1837 15.4627 15.6111 10.0012 15.6111C4.53971 15.6111 0.112305 11.1837 0.112305 5.72222V4.5H2.77897Z" fill="#131313"/>
<path fill-rule="evenodd" clip-rule="evenodd" d="M10.779 15.6111H9.00119V20.0023L10.779 19.0301V15.6111ZM13.4456 20.6111L6.33453 24.5V12.9444H13.4456V20.6111Z" fill="#131313"/>
<path fill-rule="evenodd" clip-rule="evenodd" d="M16.743 4.5C16.5467 4.38861 16.2994 4.2673 15.9938 4.14366C14.5938 3.5774 12.4764 3.16667 10.0012 3.16667C7.52599 3.16667 5.40857 3.5774 4.00864 4.14366C3.70297 4.2673 3.45572 4.38861 3.2594 4.5C3.45572 4.61139 3.70297 4.7327 4.00864 4.85634C5.40857 5.4226 7.52599 5.83333 10.0012 5.83333C12.4764 5.83333 14.5938 5.4226 15.9938 4.85634C16.2994 4.7327 16.5467 4.61139 16.743 4.5ZM10.0012 8.5C15.4627 8.5 19.8901 6.70914 19.8901 4.5C19.8901 2.29086 15.4627 0.5 10.0012 0.5C4.53971 0.5 0.112305 2.29086 0.112305 4.5C0.112305 6.70914 4.53971 8.5 10.0012 8.5Z" fill="#131313"/>
</svg>
