<svg width="189" height="56" viewBox="0 0 189 56" fill="none" xmlns="http://www.w3.org/2000/svg">
<g clip-path="url(#clip0)">
<path d="M144.288 13.3444C136.38 13.3444 129.946 19.778 129.946 27.6865C129.946 35.5949 136.38 42.0309 144.288 42.0309C152.197 42.0309 158.63 35.5972 158.63 27.6865C158.63 19.778 152.194 13.3444 144.288 13.3444ZM144.288 34.8059C140.361 34.8059 137.169 31.6132 137.169 27.6865C137.169 23.7598 140.364 20.5693 144.288 20.5693C148.213 20.5693 151.408 23.7621 151.408 27.6865C151.408 31.6109 148.213 34.8059 144.288 34.8059Z" fill="#202020"/>
<path d="M166.559 36.0399L163.302 36.1454L160.394 29.5489L160.389 13.3444H167.64V17.3674L166.559 36.0399Z" fill="#202020"/>
<path d="M160.395 40.5561C160.395 41.3611 160.397 41.9047 160.395 42.0286H167.645C167.661 42.0286 167.672 42.0286 167.672 42.0286C167.65 41.5928 167.672 27.8218 167.672 27.7392C167.672 23.8401 170.812 20.6634 174.696 20.5969C178.579 20.6634 181.719 23.8401 181.719 27.7392C181.719 27.8241 181.742 41.5928 181.719 42.0286C181.719 42.0286 181.728 42.0286 181.746 42.0286H188.996C188.994 41.9047 188.996 41.3611 188.996 40.5561C189.003 39.1271 189.001 36.861 188.996 34.627C188.999 31.1728 188.996 27.8035 188.996 27.7392C188.996 23.8997 187.551 20.2987 184.925 17.5968C182.26 14.8536 178.67 13.3444 174.819 13.3444C174.778 13.3444 174.615 13.3444 174.574 13.3444C170.723 13.3444 167.133 14.8559 164.468 17.5968C161.84 20.2987 160.395 23.8997 160.395 27.7392C160.395 27.8035 160.392 31.1728 160.395 34.627C160.39 36.861 160.388 39.1271 160.395 40.5561Z" fill="#202020"/>
<path d="M36.6729 36.0399L33.416 36.1454L30.5076 29.5489L30.5031 13.3444H37.7532V17.3674L36.6729 36.0399Z" fill="#202020"/>
<path d="M47.9484 13.6632V21.3859C47.0034 20.8996 45.9369 20.6175 44.8061 20.5969C40.923 20.6634 37.783 23.8401 37.783 27.7392C37.783 27.8218 37.7601 41.5928 37.783 42.0286C37.783 42.0286 37.7739 42.0286 37.7555 42.0263V42.0286H30.5053C30.5076 41.9047 30.5053 41.3611 30.5053 40.5561C30.4984 39.1271 30.5007 36.861 30.5053 34.627C30.5053 32.416 30.5053 30.2393 30.5053 28.9434V27.7392C30.5053 23.8997 31.9503 20.2987 34.5765 17.5968C35.5284 16.6197 36.5949 15.7963 37.7509 15.1449C39.8358 13.9682 42.2029 13.3444 44.6823 13.3444H44.9277C45.9576 13.3444 46.969 13.4522 47.9484 13.6632Z" fill="#202020"/>
<path d="M91.0184 13.3444H83.7682V55.4234H91.0184V13.3444Z" fill="#202020"/>
<path d="M98.1103 13.3444C95.5323 13.3444 93.1102 14.0279 91.0184 15.2229C86.6903 17.6954 83.7682 22.3561 83.7682 27.6865C83.7682 33.0169 86.6903 37.6776 91.0184 40.1501C93.1102 41.3474 95.5323 42.0309 98.1103 42.0309C106.019 42.0309 112.452 35.5972 112.452 27.6865C112.452 19.778 106.019 13.3444 98.1103 13.3444ZM98.1103 34.8059C94.3877 34.8059 91.3234 31.932 91.0184 28.2874C91 28.0879 90.9931 27.8883 90.9931 27.6865C90.9931 27.4846 91 27.2828 91.0184 27.0856C91.3257 23.441 94.3877 20.5693 98.1103 20.5693C102.037 20.5693 105.23 23.7621 105.23 27.6865C105.23 31.6109 102.035 34.8059 98.1103 34.8059Z" fill="#202020"/>
<path d="M7.25019 0H0V42.0286H7.25019V0Z" fill="#202020"/>
<path d="M34.5307 0L16.3537 19.3675L11.3856 24.6566L7.25022 29.0673L6.21579 30.1682L0.928955 25.2071L7.25022 18.4707L24.5855 0H34.5307Z" fill="#202020"/>
<path d="M37.7533 42.0286H27.4984L9.99341 24.5236L15.1197 19.3973L37.7533 42.0286Z" fill="#202020"/>
<path d="M129.896 42.0286C122.044 42.0286 115.659 36.0055 115.659 28.6016V0H122.909V28.6039C122.909 32.01 126.045 34.7807 129.896 34.7807V42.0286Z" fill="#202020"/>
<path d="M129.898 6.09648H112.452V13.326H129.898V6.09648Z" fill="#202020"/>
<path d="M56.5129 47.2925H64.6553L63.6438 49.2696L60.5198 55.3822H52.3774L56.5129 47.2925Z" fill="url(#paint0_linear)"/>
<path d="M67.3641 41.9965L69.9238 36.9849L81.9998 13.3536H73.8574L65.8526 29.0191L57.8455 13.3536H49.7031L61.7814 36.9849L59.8754 40.7166L59.2217 41.9965H67.3641Z" fill="#202020"/>
</g>
<defs>
<linearGradient id="paint0_linear" x1="59.0909" y1="47.1946" x2="57.9435" y2="55.4722" gradientUnits="userSpaceOnUse">
<stop stop-color="#291AD5"/>
<stop offset="1" stop-color="#A90BF4"/>
</linearGradient>
<clipPath id="clip0">
<rect width="189.001" height="55.4234" fill="white"/>
</clipPath>
</defs>
</svg>
