<svg width="auto" height="100%" viewBox="0 0 60 17" fill="none" xmlns="http://www.w3.org/2000/svg">
<path d="M39.0341 14.7149C38.9889 16.0172 38.2652 16.7357 37.4963 16.7357C36.456 16.7357 35.7776 15.8825 34.5564 13.6372C34.0136 14.3108 33.5161 14.9394 33.109 15.4334C32.4758 16.1968 31.8878 16.6908 31.1641 16.6908C30.3952 16.6908 30.1238 16.107 30.1238 15.3436C30.1238 13.6372 30.5761 8.24842 30.2143 5.95821C30.5761 5.73368 31.1189 5.59896 31.526 5.59896C32.8376 5.59896 33.2447 6.49708 33.2447 8.02389C33.2447 9.05674 33.109 11.0326 32.9733 11.9756C35.0087 9.05674 36.2299 6.94615 36.6822 5.68877C38.0843 5.46424 38.808 6.13783 38.808 7.17068C38.808 8.24842 38.1295 9.28127 36.3203 11.3919C37.4511 13.3677 38.2652 14.4455 39.0341 14.7149Z" fill="black"/>
<path d="M20.2243 11.2571C20.2243 7.93405 21.8978 5.64384 24.7473 5.64384C27.5968 5.64384 29.0893 7.93405 29.0893 11.1224C29.0893 14.4454 27.5063 16.8255 24.5664 16.8255C21.9883 16.8255 20.2243 14.8496 20.2243 11.2571ZM22.9833 11.302C22.9833 13.233 23.5261 14.3107 24.6568 14.3107C25.7876 14.3107 26.3303 13.1432 26.3303 11.0326C26.3303 9.46086 25.9685 8.15859 24.7473 8.15859C23.5713 8.15859 22.9833 9.32615 22.9833 11.302Z" fill="black"/>
<path d="M48.9 14.715C48.8548 16.0173 48.1311 16.7358 47.3622 16.7358C46.3219 16.7358 45.6887 15.8825 44.6032 13.6372C44.0604 14.3108 43.5629 14.8946 43.201 15.3886C42.5678 16.152 41.9798 16.646 41.2562 16.646C40.4873 16.646 40.2159 16.0622 40.2159 15.2988C40.2159 13.5923 40.6682 8.20359 40.3063 5.91338C40.6682 5.68885 41.2109 5.55413 41.618 5.55413C42.9297 5.55413 43.3367 6.45225 43.3367 7.97906C43.3367 9.0119 43.201 10.9878 43.0653 11.9308C45.1007 9.0119 46.3219 6.90131 46.7742 5.64394C48.1763 5.41941 48.9 6.093 48.9 7.12584C48.9 8.20359 48.1763 9.23643 46.4124 11.3919C47.4074 13.3229 48.1311 14.4905 48.9 14.715Z" fill="black"/>
<path d="M58.4886 13.727C58.76 15.0292 59.167 16.107 59.3027 16.3764C58.9861 16.6459 58.4886 16.8255 57.8554 16.8255C56.408 16.8255 56.001 16.0621 55.6843 13.9066C54.825 13.9515 53.9656 13.9964 53.1967 14.0413C52.7896 16.1968 52.3373 16.7806 51.1161 16.7806C50.5282 16.7806 50.0306 16.6009 49.7593 16.1968C49.9854 15.7926 50.2115 14.9394 50.6186 13.0534C50.9804 11.2571 51.5684 8.83218 52.1112 7.57481C52.6087 6.45215 53.2872 5.64384 54.7798 5.64384C57.1317 5.64384 57.584 7.5299 58.1268 11.4816C58.7147 11.3918 59.1218 11.3469 59.3932 11.2571C59.6646 12.5145 59.4384 13.4126 58.4886 13.727ZM53.649 11.796C54.2822 11.7511 54.8702 11.7062 55.4582 11.7062C55.232 9.50577 55.1416 8.11368 54.7798 7.79934C54.4631 8.02387 54.0561 9.50577 53.649 11.796Z" fill="black"/>
<path d="M2.48481 16.9963C4.06605 16.9713 4.81902 15.6755 4.74372 13.059C4.74372 12.8596 4.71862 11.5638 4.66842 9.14662C4.64332 8.14984 4.74372 7.40226 4.94451 6.92879C5.12021 7.25274 5.3461 7.87573 5.64729 8.77283C5.92338 9.69485 6.19947 10.4424 6.45046 11.0405C6.67635 11.6635 7.07793 12.2117 7.60501 12.735C8.13209 13.2583 8.70937 13.5075 9.38705 13.4826C10.0396 13.4577 10.6671 12.9842 11.2946 12.0373C11.9221 11.0903 12.424 10.0437 12.8256 8.92235C13.2272 7.80097 13.6539 6.75435 14.1308 5.80741C14.5826 4.86047 14.9841 4.387 15.3104 4.387C15.3857 4.86047 15.3104 6.33072 15.0343 8.79775C14.7582 11.2648 14.6327 13.1337 14.6829 14.3548C14.7331 15.4263 15.2602 16.149 16.2893 16.5228C17.3183 16.8966 18.2219 16.7471 19.0502 16.0742C18.9247 15.0775 18.8243 13.8315 18.7992 12.3363C18.7741 11.5638 18.8243 10.3926 18.8996 8.79775C18.9749 7.2029 19 6.05661 18.9749 5.33394C18.8745 2.04457 17.996 0.200523 15.21 0.300201C14.1308 0.325122 13.3276 0.773671 12.6248 1.87013C12.2483 2.44328 11.9722 2.94167 11.7464 3.41514C11.5205 3.88861 11.2193 4.56144 10.8428 5.48346C10.4663 6.40548 10.14 7.15306 9.88903 7.67637C9.81373 7.50194 9.68823 7.15306 9.51254 6.57991C9.13606 5.45854 8.93526 4.86047 8.43328 3.71417C7.9313 2.56788 7.45442 1.89505 6.77674 1.12255C6.07397 0.350041 5.2206 -0.0237511 4.29194 0.00116807C3.21268 0.00116807 2.30911 0.449719 1.60634 1.37174C1.58124 1.79537 1.48084 2.81707 1.33025 4.46176C1.17966 6.13136 1.05416 7.52686 0.928665 8.64823C0.80317 9.79453 0.677674 11.0654 0.501981 12.436C0.326288 13.8315 0.150594 14.903 0 15.6257C0.27609 16.5976 1.10436 17.0461 2.48481 16.9963Z" fill="black"/>
</svg>
