<svg width="100%" height="100%" viewBox="0 0 16 17" fill="none" xmlns="http://www.w3.org/2000/svg">
<path fill-rule="evenodd" clip-rule="evenodd" d="M8.6297 2.67594H7.37044C4.50163 2.67594 2.176 5.00157 2.176 7.87038V9.12964C2.176 11.9985 4.50163 14.3241 7.37044 14.3241H8.6297C11.4985 14.3241 13.8241 11.9985 13.8241 9.12964V7.87038C13.8241 5.00157 11.4985 2.67594 8.6297 2.67594ZM7.37044 0.787048C3.45843 0.787048 0.287109 3.95837 0.287109 7.87038V9.12964C0.287109 13.0417 3.45843 16.213 7.37044 16.213H8.6297C12.5417 16.213 15.713 13.0417 15.713 9.12964V7.87038C15.713 3.95836 12.5417 0.787048 8.6297 0.787048H7.37044Z" fill="#131313"/>
<path d="M7.04706 7.65001H8.93595V12.1125H7.04706V7.65001Z" fill="#131313"/>
<path d="M7.04706 4.67501H8.93595V6.58751H7.04706V4.67501Z" fill="#131313"/>
</svg>
