<svg width="100%" height="100%" viewBox="0 0 24 24" fill="none" xmlns="http://www.w3.org/2000/svg">
<path fill-rule="evenodd" clip-rule="evenodd" d="M0.318162 5.18044C1.90372 0.645753 7.93687 -0.22833 10.7442 3.6699L12.0149 5.43434L12.9735 3.96932C15.6216 -0.0776355 21.721 0.497764 23.5655 4.96855C24.4363 7.07902 23.9749 9.50479 22.3902 11.1482L12.0651 21.8558L1.59004 10.9928C0.103019 9.45069 -0.388906 7.20265 0.318162 5.18044ZM8.68097 5.15575C7.07544 2.92632 3.62504 3.42622 2.71825 6.01963C2.32797 7.13584 2.5995 8.3767 3.4203 9.2279L12.0651 18.1928L20.5599 9.38334C21.4434 8.46716 21.7006 7.11483 21.2152 5.93828C20.1504 3.35759 16.6297 3.02545 15.1011 5.36149L12.1152 9.92454L8.68097 5.15575Z" fill="white"/>
</svg>
