<svg width="100%" height="100%" viewBox="0 0 40 40" fill="none" xmlns="http://www.w3.org/2000/svg">
<path fill-rule="evenodd" clip-rule="evenodd" d="M34.0741 4.44444H5.92593C5.10773 4.44444 4.44444 5.10773 4.44444 5.92592V34.0741C4.44444 34.8923 5.10773 35.5556 5.92592 35.5556H34.0741C34.8923 35.5556 35.5556 34.8923 35.5556 34.0741V5.92593C35.5556 5.10773 34.8923 4.44444 34.0741 4.44444ZM5.92593 0C2.65313 0 0 2.65313 0 5.92592V34.0741C0 37.3469 2.65313 40 5.92592 40H34.0741C37.3469 40 40 37.3469 40 34.0741V5.92593C40 2.65313 37.3469 0 34.0741 0H5.92593Z" fill="url(#photoIcon_paint0_linear)"/>
<path d="M15.687 22.963L5.92593 34.0741H34.0741L26.129 15.5556L20.454 27.9739L15.687 22.963Z" fill="url(#photoIcon_paint1_linear)"/>
<path fill-rule="evenodd" clip-rule="evenodd" d="M15.687 22.963L20.454 27.9739L26.129 15.5556L34.0741 34.0741H5.92593L15.687 22.963ZM15.8176 29.5484L15.7462 29.6296H15.8948L15.8176 29.5484ZM24.5839 29.6296H27.331L26.0008 26.5291L24.5839 29.6296Z" fill="url(#photoIcon_paint2_linear)"/>
<path fill-rule="evenodd" clip-rule="evenodd" d="M15.5556 16.6667C18.0102 16.6667 20 14.6768 20 12.2222C20 9.76762 18.0102 7.77778 15.5556 7.77778C13.101 7.77778 11.1111 9.76762 11.1111 12.2222C11.1111 14.6768 13.101 16.6667 15.5556 16.6667Z" fill="url(#photoIcon_paint3_linear)"/>
<defs>
<linearGradient id="photoIcon_paint0_linear" x1="20" y1="0" x2="20" y2="40" gradientUnits="userSpaceOnUse">
<stop stop-color="#291AD5"/>
<stop offset="1" stop-color="#681DE1"/>
</linearGradient>
<linearGradient id="photoIcon_paint1_linear" x1="20" y1="0" x2="20" y2="40" gradientUnits="userSpaceOnUse">
<stop stop-color="#291AD5"/>
<stop offset="1" stop-color="#681DE1"/>
</linearGradient>
<linearGradient id="photoIcon_paint2_linear" x1="20" y1="0" x2="20" y2="40" gradientUnits="userSpaceOnUse">
<stop stop-color="#291AD5"/>
<stop offset="1" stop-color="#681DE1"/>
</linearGradient>
<linearGradient id="photoIcon_paint3_linear" x1="20" y1="0" x2="20" y2="40" gradientUnits="userSpaceOnUse">
<stop stop-color="#291AD5"/>
<stop offset="1" stop-color="#681DE1"/>
</linearGradient>
</defs>
</svg>
