<svg width="100%" height="100%" viewBox="0 0 30 40" fill="none" xmlns="http://www.w3.org/2000/svg">
<path fill-rule="evenodd" clip-rule="evenodd" d="M14.9999 13.7037C17.5567 13.7037 19.6295 11.6309 19.6295 9.07407C19.6295 6.5172 17.5567 4.44444 14.9999 4.44444C12.443 4.44444 10.3702 6.5172 10.3702 9.07407C10.3702 11.6309 12.443 13.7037 14.9999 13.7037ZM14.9999 18.1481C20.0113 18.1481 24.0739 14.0855 24.0739 9.07407C24.0739 4.0626 20.0113 0 14.9999 0C9.9884 0 5.9258 4.0626 5.9258 9.07407C5.9258 14.0855 9.9884 18.1481 14.9999 18.1481Z" fill="url(#recipientIcon_paint0_linear)"/>
<path fill-rule="evenodd" clip-rule="evenodd" d="M22.989 33.3873C24.8682 32.1188 25.3702 30.8388 25.3702 30C25.3702 29.1612 24.8682 27.8812 22.989 26.6127C21.136 25.3619 18.3246 24.4444 14.9999 24.4444C11.6751 24.4444 8.86378 25.3619 7.01076 26.6127C5.13155 27.8812 4.6295 29.1612 4.6295 30C4.6295 30.8388 5.13155 32.1188 7.01076 33.3873C8.86378 34.6381 11.6751 35.5556 14.9999 35.5556C18.3246 35.5556 21.136 34.6381 22.989 33.3873ZM14.9999 40C23.1819 40 29.8147 35.5228 29.8147 30C29.8147 24.4772 23.1819 20 14.9999 20C6.81788 20 0.185059 24.4772 0.185059 30C0.185059 35.5228 6.81788 40 14.9999 40Z" fill="url(#recipientIcon_paint1_linear)"/>
<defs>
<linearGradient id="recipientIcon_paint0_linear" x1="14.9999" y1="0" x2="14.9999" y2="40" gradientUnits="userSpaceOnUse">
<stop stop-color="#291AD5"/>
<stop offset="1" stop-color="#681DE1"/>
</linearGradient>
<linearGradient id="recipientIcon_paint1_linear" x1="14.9999" y1="0" x2="14.9999" y2="40" gradientUnits="userSpaceOnUse">
<stop stop-color="#291AD5"/>
<stop offset="1" stop-color="#681DE1"/>
</linearGradient>
</defs>
</svg>
