<svg width="100%" height="100%" viewBox="0 0 36 36" fill="none" xmlns="http://www.w3.org/2000/svg">
<path fill-rule="evenodd" clip-rule="evenodd" d="M28.5402 0.813339L35.4183 7.92804L32.5363 20.0075L16.8321 35.1894L0.666016 18.467L16.3702 3.28518L28.5402 0.813339ZM27.1881 5.16965L18.3108 6.9727L6.32206 18.5627L16.9278 29.5333L28.9166 17.9433L31.0187 9.13213L27.1881 5.16965ZM23.631 12.2443C23.1457 11.7423 22.3453 11.7287 21.8433 12.214C21.3413 12.6993 21.3278 13.4997 21.8131 14.0017C22.2984 14.5037 23.0987 14.5172 23.6007 14.0319C24.1027 13.5466 24.1163 12.7463 23.631 12.2443ZM19.0631 9.33818C21.1534 7.31743 24.4861 7.37379 26.5068 9.46407C28.5276 11.5543 28.4712 14.887 26.3809 16.9078C24.2906 18.9285 20.958 18.8721 18.9372 16.7819C16.9165 14.6916 16.9728 11.3589 19.0631 9.33818Z" fill="url(#salesIcon_paint0_linear)"/>
<defs>
<linearGradient id="salesIcon_paint0_linear" x1="18.0421" y1="0.813339" x2="18.0421" y2="35.1894" gradientUnits="userSpaceOnUse">
<stop stop-color="#291AD5"/>
<stop offset="1" stop-color="#681DE1"/>
</linearGradient>
</defs>
</svg>
