<svg width="100%" height="100%" viewBox="0 0 40 40" fill="none" xmlns="http://www.w3.org/2000/svg">
<path fill-rule="evenodd" clip-rule="evenodd" d="M19.999 34.074C27.7719 34.074 34.0731 27.7729 34.0731 20C34.0731 12.2271 27.7719 5.92589 19.999 5.92589C12.2261 5.92589 5.92491 12.2271 5.92491 20C5.92491 27.7729 12.2261 34.074 19.999 34.074ZM19.999 38.5185C30.2265 38.5185 38.5175 30.2275 38.5175 20C38.5175 9.77247 30.2265 1.48145 19.999 1.48145C9.77149 1.48145 1.48047 9.77247 1.48047 20C1.48047 30.2275 9.77149 38.5185 19.999 38.5185Z" fill="url(#paint0_linear_3701:28554)"/>
<path d="M21.633 22.0155C25.4162 22.0155 27.7926 20.0792 27.7767 16.992C27.7926 14.0525 25.4957 11.8518 21.633 11.8518H15.2748V19.3171H12.962V22.0155H15.2748V23.042H12.962V25.7403H15.2748V27.7777H18.6923V25.7403H22.245V23.042H18.6923V22.0155H21.633ZM18.6923 19.3171V14.5891H21.633C23.4531 14.5891 24.3432 15.6622 24.3353 17.0309C24.3432 18.4306 23.469 19.3171 21.5376 19.3171H18.6923Z" fill="url(#paint1_linear_3701:28554)"/>
<defs>
<linearGradient id="paint0_linear_3701:28554" x1="19.999" y1="1.48145" x2="19.999" y2="38.5185" gradientUnits="userSpaceOnUse">
<stop stop-color="#291AD5"/>
<stop offset="1" stop-color="#681DE1"/>
</linearGradient>
<linearGradient id="paint1_linear_3701:28554" x1="19.999" y1="1.48145" x2="19.999" y2="38.5185" gradientUnits="userSpaceOnUse">
<stop stop-color="#291AD5"/>
<stop offset="1" stop-color="#681DE1"/>
</linearGradient>
</defs>
</svg>
