<svg width="100%" height="100%" viewBox="0 0 24 24" fill="none" xmlns="http://www.w3.org/2000/svg">
<path fill-rule="evenodd" clip-rule="evenodd" d="M16.7665 21.3334V4.3206H14.0999V22.4445C14.0999 23.3036 14.7963 24 15.6554 24H19.6553C20.5144 24 21.2108 23.3036 21.2108 22.4445V4.3206H18.5442V21.3334H16.7665Z" fill="#131313"/>
<path fill-rule="evenodd" clip-rule="evenodd" d="M17.6664 0.000367895L23.993 6.26175L22.1173 8.15706L18.9169 4.98972C18.2242 4.30414 17.1087 4.30414 16.4159 4.98972L13.2156 8.15706L11.3398 6.26175L17.6664 0.000367895Z" fill="#131313"/>
<path fill-rule="evenodd" clip-rule="evenodd" d="M7.2334 2.66658V19.6794H9.89999V1.55551C9.89999 0.696425 9.20356 0 8.34448 0H4.3446C3.48552 0 2.78909 0.696425 2.78909 1.55551V19.6794H5.45568V2.66658H7.2334Z" fill="#131313"/>
<path fill-rule="evenodd" clip-rule="evenodd" d="M6.33344 23.9996L0.00683594 17.7382L1.8826 15.8429L5.08293 19.0103C5.77566 19.6959 6.89123 19.6959 7.58395 19.0103L10.7843 15.8429L12.66 17.7382L6.33344 23.9996Z" fill="#131313"/>
</svg>
