<svg width="100%" height="100%" viewBox="0 0 40 34" fill="none" xmlns="http://www.w3.org/2000/svg">
<path d="M39.3185 15.9041L39.8334 14.3221L38.1299 14.3733C37.986 14.3733 36.9398 14.3448 35.9249 13.6385C36.0006 13.6456 36.0762 13.6555 36.1534 13.6555C37.198 13.6555 38.2085 13.0518 38.6136 12.1887L39.3467 10.6294C38.4282 10.6408 37.5883 10.5297 37.5883 10.5297C37.5808 10.5282 36.919 10.4471 36.1534 9.69659C35.6043 9.15833 34.9248 8.87343 34.1887 8.87343C33.8668 8.87343 33.5788 8.92897 33.3311 9.00447C33.3697 8.87775 33.4067 8.74955 33.4276 8.61709C33.6619 7.15742 32.6827 6.04378 32.6827 6.04528L31.4021 4.52293L30.6082 6.31153C30.6052 6.31725 30.4049 6.73598 30.0458 6.94099C29.9375 6.4155 29.6719 5.82453 29.1036 5.25915C28.0322 4.19392 26.7279 4.03584 26.0453 4.03584C25.7292 4.03584 25.5038 4.06862 25.4487 4.07714L23.9027 4.36915C23.9916 4.03734 24.1816 3.46052 24.5288 2.94074L25.3821 1.6648L23.2349 1.89977L22.5508 0.505545L21.2273 1.16065L20.0031 0L18.7818 1.16065L17.4537 0.505545L16.7711 1.89977L14.6256 1.6648L15.4802 2.94074C15.8274 3.46052 16.0174 4.03584 16.105 4.36765L14.6299 4.08856L14.5795 4.08004C14.5053 4.06862 14.2813 4.03584 13.9637 4.03584C13.2811 4.03584 11.9768 4.19533 10.9084 5.25915C10.3386 5.82313 10.073 6.4155 9.96321 6.94099C9.60712 6.73879 9.40822 6.32577 9.40822 6.32577L8.61288 4.52714L7.3116 6.05951C7.15275 6.2574 6.36785 7.30419 6.58149 8.61999C6.60379 8.75103 6.63938 8.87917 6.67798 9.00596C6.43166 8.93045 6.14375 8.87492 5.82181 8.87492C5.08578 8.87492 4.4062 9.15974 3.85569 9.69808C3.09289 10.4457 2.43407 10.5297 2.44007 10.5297C2.44007 10.5297 1.7441 10.6493 0.666836 10.6307L1.39539 12.1902C1.80054 13.0547 2.81245 13.657 3.85569 13.657C3.93433 13.657 4.00996 13.647 4.08716 13.6399C3.07515 14.3462 2.02901 14.3747 1.90285 14.3761L0.166748 14.3221L0.692048 15.9027C0.9562 16.7174 1.83904 18.0674 3.53073 18.2126C3.34668 18.9532 2.93862 19.782 2.04239 20.1394L0.749941 20.6506L1.45474 21.8284C1.85243 22.4635 2.78578 23.2068 4.11528 23.2068C4.40319 23.2054 4.68063 23.1784 4.94779 23.1243C5.01606 23.4148 5.10207 23.7054 5.20302 23.993C5.59916 25.1237 5.25791 25.9126 5.25345 25.9212L4.61537 27.2043L6.0399 27.5646C6.05774 27.5702 6.488 27.6827 7.02669 27.6827C7.27154 27.6827 7.50445 27.6586 7.72411 27.6088C7.89023 27.5717 8.04909 27.5219 8.20187 27.462C8.38589 27.7796 8.60995 28.0687 8.87112 28.3278C9.78373 29.2265 11.0762 29.6821 12.7143 29.6821H12.7203L13.8896 29.6679L11.4738 30.6306L13.3079 31.4808C13.9741 31.7927 14.765 32.1614 15.5693 32.4434L15.3407 33.0445L15.9729 33.3207C16.0292 33.3449 17.2445 33.8675 19.2656 33.9786C19.2656 33.9786 19.7538 34 20.0223 34C20.2909 34 20.7731 33.9773 20.7731 33.9773C22.7809 33.8633 23.9872 33.3464 24.0436 33.3207L24.6772 33.043L24.4457 32.4407C25.2738 32.1501 26.0928 31.767 26.7309 31.468L28.5308 30.6292L26.1224 29.6651L27.2962 29.6794C28.9359 29.6794 30.2298 29.2236 31.1408 28.3236C31.4006 28.0659 31.6247 27.7768 31.8102 27.4592C31.963 27.519 32.1232 27.5688 32.2894 27.6059C32.5075 27.6557 32.7405 27.68 32.9854 27.68C33.515 27.68 33.9499 27.5675 33.9617 27.5646L35.3922 27.2015L34.7689 25.9426C34.7541 25.9098 34.4128 25.1222 34.809 23.9901C34.9099 23.701 34.9944 23.4106 35.0627 23.1214C35.3314 23.1755 35.6118 23.204 35.9012 23.204C37.5942 23.204 38.4059 22.0605 38.5632 21.8127L39.2606 20.6478L37.9681 20.138C37.0704 19.7805 36.6639 18.9503 36.4813 18.2113C38.1492 18.0745 39.0454 16.7245 39.3185 15.9041ZM16.2176 4.91309L16.1999 4.9174L16.2148 4.89886L16.2176 4.91309Z" fill="white"/>
<path d="M20.0045 4.84338C18.6364 4.84479 17.6111 5.27485 17.387 5.7804L20.0045 6.77163L22.6221 5.7804C22.3995 5.27485 21.3741 4.84479 20.0045 4.84338Z" fill="white"/>
<path d="M20.0309 31.082H20.0278H20.0055H19.9803H19.9789C19.1493 31.0878 18.0083 30.9239 17.4577 30.7701L16.7959 32.489C17.2322 32.6386 18.7102 32.9233 20.0055 32.9233C21.298 32.9233 22.7774 32.6372 23.2122 32.489L22.5518 30.7701C21.9999 30.9253 20.8602 31.0878 20.0309 31.082Z" fill="white"/>
<path d="M25.0394 29.3732C24.5467 29.6409 23.4472 30.0425 22.8076 30.229L23.3448 31.6488C24.3345 31.3896 25.1506 31.0863 25.8258 30.7616L24.7114 30.4056L25.0394 29.3732Z" fill="white"/>
<path d="M14.9713 29.3732L15.3007 30.4056L14.1848 30.7616C14.8585 31.0863 15.679 31.3896 16.6643 31.6488L17.2015 30.229C16.5649 30.0425 15.4638 29.6394 14.9713 29.3732Z" fill="white"/>
<path d="M20.0046 3.19982C21.0359 3.19982 22.0479 3.43621 22.8254 3.85213C22.8967 3.62277 22.9961 3.34508 23.1311 3.05457L22.8374 3.08875L22.5287 3.12012L22.3981 2.85096L22.0049 2.0535L21.2881 2.41228L21.0092 2.54902L20.7866 2.3383L20.0076 1.59778L19.2301 2.3383L19.0075 2.54902L18.7285 2.41228L18.0074 2.0535L17.6186 2.85096L17.4851 3.12012L17.1764 3.08875L16.8826 3.05457C17.0177 3.34648 17.1156 3.62277 17.1883 3.85213C17.9673 3.43621 18.9763 3.19982 20.0046 3.19982Z" fill="white"/>
<path d="M35.7499 12.4166C35.8835 12.4608 36.0199 12.4807 36.155 12.4807C36.7381 12.4807 37.302 12.119 37.4964 11.7045C37.4964 11.7045 36.4265 11.6419 35.2765 10.5211C34.9101 10.158 34.5228 10.0498 34.1904 10.0498C33.6739 10.0498 33.2866 10.3118 33.2866 10.3118C34.6756 11.021 34.9589 12.1603 35.7499 12.4166Z" fill="white"/>
<path d="M3.85486 12.4807C3.98985 12.4807 4.12638 12.4608 4.25701 12.4166C5.05082 12.1603 5.33573 11.021 6.72467 10.3118C6.72467 10.3118 6.33581 10.0498 5.82244 10.0498C5.48856 10.0498 5.10125 10.158 4.73324 10.5211C3.58479 11.6419 2.51489 11.7045 2.51489 11.7045C2.70632 12.119 3.27167 12.4807 3.85486 12.4807Z" fill="white"/>
<path d="M36.1269 17.0463C36.1507 17.0477 36.1714 17.0477 36.1967 17.0477C37.6523 17.0477 38.1465 15.5509 38.1465 15.5509H38.1183C37.8512 15.5509 35.6862 15.4912 34.1563 13.6242C33.1488 12.3967 32.3237 11.3172 30.6929 10.8927L30.5327 10.8657L30.4971 10.7091C30.4526 10.4698 30.6232 10.2462 31.0106 10.0041C33.2601 8.59009 31.7331 6.78714 31.7331 6.78714C31.7331 6.78714 31.0907 8.22976 29.6528 8.22976C29.6187 8.22976 29.5816 8.22828 29.546 8.22828C29.3828 8.21978 29.2255 8.21404 29.0666 8.18139L28.801 8.13145C28.801 8.13145 29.2107 7.06201 28.2224 6.07939C27.4774 5.33747 26.5708 5.21216 26.047 5.21216C25.7828 5.21216 25.6151 5.24484 25.6151 5.24484C26.1123 5.86858 26.4714 6.90252 25.8972 7.54049C25.4016 8.08874 24.1907 8.11579 24.1907 8.93321C24.1907 9.2793 24.5275 9.68376 25.1329 10.0469C26.9537 11.1477 28.761 12.6073 29.5118 14.5641C30.4511 17.005 29.3931 18.6242 27.8826 19.5527C27.8826 19.5527 28.3559 19.9713 29.043 20.024C29.1824 20.0368 29.319 20.0425 29.4466 20.0425C30.8963 20.0425 31.6456 19.3903 31.6456 19.3903C31.6456 19.3903 31.5224 20.2917 30.7671 21.1291C30.0713 21.9024 29.1572 22.3567 27.7638 22.3766C27.7638 22.3766 27.7193 22.9975 28.3366 23.5344C28.7313 23.8733 29.6439 23.9844 29.6439 23.9844C29.6439 23.9844 27.9359 24.3162 27.7475 26.7372C27.6451 28.0487 27.2964 28.5044 27.2964 28.5044H27.3276C31.291 28.5044 31.1886 25.2419 31.1886 25.2419C31.1886 25.2419 31.4646 26.2073 32.5701 26.4594C32.7036 26.4937 32.8461 26.5065 32.9825 26.5065C33.3388 26.5065 33.6473 26.4267 33.6473 26.4267C33.6473 26.4267 33.0687 25.2547 33.6429 23.6155C34.1192 22.2555 34.0421 21.2473 34.0421 21.2473C34.0421 21.2473 34.5762 22.022 35.8999 22.0292H35.9132C37.0158 22.0292 37.4965 21.2274 37.4965 21.2274C34.8538 20.175 35.1149 16.7772 35.1149 16.7772C35.1149 16.7772 35.4577 17.022 36.1269 17.0463ZM35.3315 20.595C34.2572 20.0867 33.5776 18.7367 33.4129 18.2496C33.2348 20.9269 31.8726 22.7853 30.2804 24.5739C29.4539 25.501 29.1661 26.4024 29.1661 26.4024C29.1661 26.4024 29.3248 25.3814 30.04 24.5498C31.5254 22.8365 32.9366 20.7047 33.042 18.2397C33.1146 16.5193 32.6532 15.1238 31.9335 13.9746C32.3356 15.1722 32.2793 16.639 30.9126 18.0075C30.9126 18.0075 33.6325 14.8788 29.8294 11.6718C28.3069 10.4514 26.642 9.698 25.7844 9.16399C28.8827 10.1338 30.3948 9.06567 30.3948 9.06567C29.4049 9.88875 28.1244 9.87452 27.3305 9.75637C27.5457 9.85752 27.7698 9.96284 28.0116 10.0867C30.6232 11.4482 32.9707 13.6883 33.3713 16.7914V16.7671C33.9797 19.8132 35.3315 20.595 35.3315 20.595Z" fill="white"/>
<path d="M10.3651 23.9844C10.3651 23.9844 11.2777 23.8747 11.6724 23.5344C12.2881 22.9975 12.2452 22.3766 12.2452 22.3766C10.8504 22.358 9.93779 21.9024 9.23743 21.1306C8.48801 20.2932 8.3634 19.3917 8.3634 19.3917C8.3634 19.3917 9.11267 20.044 10.561 20.044C10.6916 20.044 10.8266 20.0383 10.9661 20.0254C11.6531 19.9727 12.128 19.554 12.128 19.554C10.6173 18.6256 9.55794 17.005 10.4957 14.5641C11.2481 12.6088 13.0538 11.1477 14.8747 10.0469C15.48 9.68376 15.8168 9.28065 15.8168 8.93321C15.8168 8.11579 14.6075 8.08874 14.1118 7.54049C13.5377 6.90252 13.8982 5.86718 14.3938 5.24484C14.3938 5.24484 14.2291 5.21216 13.9635 5.21216C13.4412 5.21216 12.5345 5.33747 11.7896 6.07939C10.7984 7.06201 11.2095 8.13145 11.2095 8.13145L10.9438 8.18139C10.7851 8.21404 10.6263 8.21978 10.4645 8.22828C10.4275 8.22828 10.3948 8.22976 10.3592 8.22976C8.91839 8.22976 8.27884 6.78855 8.27884 6.78855C8.27884 6.78855 6.75191 8.59151 8.99995 10.0056C9.38727 10.2477 9.55647 10.4712 9.51196 10.7105L9.47624 10.8672L9.31305 10.8942C7.68527 11.3186 6.85878 12.398 5.85123 13.6256C4.3243 15.4898 2.1623 15.5509 1.89233 15.5509H1.86255C1.86255 15.5509 2.35673 17.0477 3.81238 17.0477C3.83614 17.0477 3.85689 17.0477 3.88211 17.0463C4.55131 17.0234 4.89556 16.7772 4.89556 16.7772C4.89556 16.7772 5.1538 20.1735 2.51401 21.2274C2.51401 21.2274 2.99481 22.0292 4.09729 22.0292H4.11067C5.4357 22.022 5.96847 21.2473 5.96847 21.2473C5.96847 21.2473 5.89128 22.2555 6.36615 23.6155C6.94033 25.2547 6.36461 26.4267 6.36461 26.4267C6.36461 26.4267 6.67327 26.5065 7.0279 26.5065C7.16589 26.5065 7.30689 26.4937 7.43897 26.4594C8.54287 26.2073 8.8204 25.2419 8.8204 25.2419C8.8204 25.2419 8.71948 28.5044 12.683 28.5044H12.711C12.711 28.5044 12.3639 28.0487 12.263 26.7372C12.0731 24.3162 10.3651 23.9844 10.3651 23.9844ZM9.72861 24.5739C8.1364 22.7853 6.77567 20.9269 6.59608 18.2496C6.43142 18.7353 5.75474 20.0867 4.68048 20.595C4.68048 20.595 6.03073 19.8132 6.63768 16.7671V16.7914C7.03983 13.6897 9.38581 11.4482 11.9988 10.0867C12.2378 9.96143 12.4648 9.8561 12.6785 9.75637C11.8846 9.87452 10.604 9.88875 9.61427 9.06567C9.61427 9.06567 11.1263 10.1338 14.2232 9.16399C13.3656 9.698 11.7021 10.4514 10.1796 11.6718C6.37498 14.8788 9.09639 18.0075 9.09639 18.0075C7.72832 16.6375 7.67346 15.1722 8.07553 13.9746C7.3544 15.1252 6.89436 16.5193 6.96855 18.2397C7.0724 20.7047 8.48354 22.8365 9.96595 24.5498C10.6827 25.38 10.8445 26.4024 10.8445 26.4024C10.8445 26.4024 10.5535 25.501 9.72861 24.5739Z" fill="white"/>
<path d="M17.0743 12.0564C17.1395 12.1233 17.2033 12.196 17.2643 12.2685C17.2791 12.2857 17.2924 12.3013 17.3072 12.3213C17.3637 12.3938 17.4215 12.4708 17.4765 12.5491C17.4883 12.5648 17.5002 12.5833 17.5135 12.6017C17.5803 12.6986 17.6427 12.7984 17.7049 12.9009C18.2762 13.8478 19.1918 14.4132 20.0034 14.4147C20.8166 14.4132 21.7292 13.8478 22.3035 12.9009C22.3673 12.7955 22.4311 12.693 22.4978 12.5976C22.5082 12.5833 22.5187 12.5705 22.5275 12.5563C22.5839 12.4751 22.6433 12.3953 22.7056 12.3184C22.7189 12.3013 22.7308 12.2871 22.7427 12.2729C22.8065 12.1974 22.8718 12.1233 22.9386 12.0549C22.9504 12.0436 22.9593 12.0336 22.9697 12.0251C23.2605 11.7389 23.6078 11.5209 24.0617 11.3999L23.86 11.2874H23.8482L23.0438 10.8388L22.2174 10.3845L20.0094 11.538L20.0034 11.5337L19.999 11.538L17.7895 10.3845L16.9645 10.8374L16.1588 11.2859H16.1498L15.9451 11.3985C16.4006 11.5195 16.7463 11.7345 17.0387 12.0208C17.052 12.0322 17.0609 12.045 17.0743 12.0564ZM19.1101 11.9638H20.045H20.9783V12.579C20.7588 12.3213 20.3314 12.374 20.3314 12.374V13.2612C20.3314 13.2612 20.3477 13.697 20.5064 13.8863H20.045H19.582C19.7437 13.6984 19.7586 13.2612 19.7586 13.2612V12.374C19.7586 12.374 19.3327 12.3213 19.1101 12.579V11.9638Z" fill="white"/>
<path d="M19.8133 10.7702V7.16876L17.4243 6.39111L18.0549 9.8816L19.8133 10.7702ZM19.2999 8.05311V8.63125L19.1842 8.57997C19.1782 8.57572 19.0091 8.53867 18.7123 8.31364C18.2227 7.94913 18.2138 7.61302 18.2138 7.61302L19.2999 8.05311Z" fill="white"/>
<path d="M21.9564 9.8816L22.5841 6.39111L20.1965 7.16876V10.7702L21.9564 9.8816ZM20.71 8.05311L21.7961 7.61444C21.7961 7.61444 21.7873 7.95054 21.2961 8.31505C21.0008 8.54009 20.8301 8.57707 20.8242 8.58139L20.7084 8.6326V8.05311H20.71Z" fill="white"/>
<path d="M16.4346 19.1199C16.6676 19.201 16.9496 19.2181 17.0935 19.2181C17.0995 19.201 17.1068 19.1796 17.1143 19.154C17.1276 19.1127 17.1395 19.0728 17.1485 19.0272C17.1885 18.8279 17.2033 18.6015 17.2063 18.4562C17.1083 18.3978 16.9703 18.2938 16.8932 18.1386C16.8042 17.9592 16.678 17.8766 16.4925 17.8766C16.2521 17.8766 15.994 18.0147 15.8841 18.0803C15.7967 18.5772 16.1779 19.0287 16.4346 19.1199Z" fill="white"/>
<path d="M21.7185 17.2084C21.2748 17.6713 20.4067 18.4773 20.3637 18.5186L20.3117 18.5699L17.5681 18.5286C17.5666 18.7892 17.5221 19.0114 17.4791 19.1737C17.4717 19.2008 17.4643 19.2292 17.4568 19.2577L20.7213 19.8203C21.0611 19.5924 21.9959 18.9373 22.358 18.681C22.0938 18.3107 22.0686 17.8721 22.1279 17.5631C21.9559 17.4563 21.8238 17.3366 21.7185 17.2084Z" fill="white"/>
<path d="M22.0912 14.0416C21.459 14.644 20.8522 14.8661 20.3106 14.9174C20.2126 14.9274 20.1132 14.933 20.0123 14.933H20.0048H19.9989C19.8981 14.933 19.7971 14.9274 19.6992 14.9174C19.6042 14.9088 19.5049 14.8946 19.4055 14.8733C19.3698 15.0085 19.3252 15.2919 19.4529 15.5596C19.5671 15.8032 19.8001 15.984 20.1399 16.1037L20.2541 16.1464L20.2557 16.2646C20.2557 16.3001 20.2824 17.0663 21.1534 17.2785C21.2958 17.1375 21.4249 17.0108 21.52 16.9053C21.3418 16.5038 21.4353 16.0937 21.6935 15.8928C21.6817 15.9356 21.5689 16.941 22.4088 17.314L22.5468 17.3768L22.5052 17.5178C22.4918 17.5605 22.2114 18.5332 23.2278 18.8948L23.4074 18.9603L23.3272 19.1284C23.3095 19.1654 22.9103 20.0484 23.8497 20.5496H25.8869V18.9974C25.1629 18.9119 24.8556 18.3537 24.777 17.9578C24.4402 17.9022 24.179 17.7627 24.0009 17.5348C23.5735 16.9951 23.9415 16.5009 23.946 16.4739C23.9446 16.4782 23.946 17.0051 24.2844 17.3298C24.452 17.4864 24.6509 17.6075 24.9521 17.6346L25.1004 17.6474L25.1139 17.7927C25.1167 17.8239 25.1984 18.536 25.8884 18.6485L25.8869 15.4785C25.8869 14.9872 26.0368 14.493 26.2164 14.0373H22.0912V14.0416Z" fill="white"/>
<path d="M16.6086 15.4937L16.5537 17.5131L16.7925 17.5473L17.3772 15.6105L17.0805 15.0152L16.6086 15.4937Z" fill="white"/>
<path d="M23.0542 24.7549C23.072 24.7549 23.0927 24.7578 23.112 24.762C23.4756 24.8618 23.5676 26.1206 24.2057 26.2331C24.268 26.2459 24.3259 26.2487 24.3763 26.2487C24.5603 26.2487 24.6701 26.1732 24.7888 26.0394C24.7888 26.0394 24.4683 25.5552 24.2279 25.2292C23.9089 24.8019 23.6612 24.2849 23.0676 24.2849C23.0542 24.2849 23.0364 24.2849 23.0216 24.2864C22.8257 24.2964 22.7055 24.3875 22.7055 24.3875C22.4651 24.2422 22.2411 24.1924 22.0377 24.1924C21.6653 24.1924 21.376 24.3562 21.2319 24.3562H21.2261L19.8994 24.2309C19.6917 24.2124 19.5286 24.0115 19.4692 23.9333C19.4543 23.9118 19.4469 23.8991 19.4469 23.8991C19.4469 23.8648 19.4469 23.8293 19.444 23.7979C19.3995 22.7569 18.5596 22.3112 18.2613 22.304C18.2613 22.304 18.2969 22.1061 18.2153 22.0307L17.923 22.371L16.9629 21.9081L17.647 22.6758L17.0668 23.3009C16.994 23.3722 17.003 23.469 17.0327 23.5088L17.2834 23.7211L17.601 23.5359C17.6173 23.5246 17.6455 23.5217 17.6811 23.5217C17.7687 23.5217 17.9008 23.543 18.0194 23.543C18.1485 23.543 18.2613 23.5159 18.2747 23.3991C18.2346 23.7851 17.8622 24.4558 18.107 24.9827L18.2881 25.3801L17.1158 25.2177L16.5667 26.1078C16.3976 26.404 16.3709 26.7244 16.5341 26.8981L16.7388 27.1446C16.7388 27.1446 17.0267 26.8511 17.092 26.6589L16.9985 26.5606C16.9199 26.478 16.9244 26.404 16.9719 26.3143L17.3161 25.7659L18.7005 26.0793L18.7732 25.9597C18.8667 25.8101 19.0018 25.7645 19.1502 25.7645C19.211 25.7645 19.2733 25.7717 19.3386 25.7817C19.5954 25.8301 20.0183 25.8956 20.4412 25.8956C20.9056 25.8956 21.3656 25.8159 21.6103 25.5524C22.1119 26.2659 23.1284 26.3798 23.0482 26.7415L22.7812 27.9634C22.9578 27.9562 23.1284 27.9448 23.2901 27.9235L23.5439 26.6517C23.5721 26.5136 23.5987 26.327 23.5987 26.327C23.5008 26.2317 23.2634 26.0294 23.1299 25.7845C22.9503 25.4541 23.0482 25.2818 22.8806 24.8517C22.8865 24.8546 22.937 24.7549 23.0542 24.7549ZM17.8755 22.9691C17.8073 22.9677 17.7583 22.9121 17.7612 22.8467C17.7672 22.784 17.8221 22.7341 17.8888 22.7398C17.9571 22.7427 18.0061 22.7997 18.0032 22.8623C17.9971 22.925 17.9408 22.9734 17.8755 22.9691Z" fill="white"/>
<path d="M15.9852 25.9111C15.9852 25.9111 16.4437 25.7303 16.4852 25.6007L16.4244 25.454C16.3814 25.3586 16.3873 25.2546 16.4704 25.1977L16.966 24.8687L17.794 25.021C17.794 25.021 17.6441 24.8416 17.659 24.6009L16.8696 24.44L16.1247 24.8758C15.8056 25.1051 15.7819 25.4795 15.8872 25.7017L15.9852 25.9111Z" fill="white"/>
<path d="M21.8372 27.9818C21.9855 27.9761 22.1487 27.9733 22.3283 27.9733C22.3283 27.9733 22.7542 26.7784 22.7779 26.74C22.5391 26.6389 22.0434 26.3867 21.852 26.2715C21.9781 26.4523 22.2853 26.6602 22.2245 26.8197L21.8372 27.9818Z" fill="white"/>
<path d="M25.8909 20.8957H14.1194V25.1451C14.1194 26.8825 15.4297 27.9706 17.3631 27.9706C18.9791 27.9706 19.4049 28.0303 20.0059 28.6029C20.4199 28.207 20.7627 28.0588 21.466 28.0033L21.4823 27.9378L21.8533 26.837C21.8325 26.8128 21.2257 26.1506 21.2257 26.1506C20.9853 26.2275 20.7835 26.2404 20.4437 26.2404C20.095 26.2404 19.7018 26.2018 19.2759 26.125C19.2328 26.115 19.1928 26.1121 19.1526 26.1121C19.1007 26.1121 19.0963 26.1164 19.083 26.1406L19.0087 26.2574L18.8737 26.471L18.62 26.4155L17.4908 26.1605L17.3364 26.4055L17.3601 26.4311L17.4982 26.5764L17.4374 26.7658C17.3542 27.0136 17.0841 27.3026 17.0026 27.3825L16.7206 27.673L16.4639 27.3611L16.2711 27.129C16.0677 26.9111 16.0203 26.5764 16.1345 26.2261C16.1315 26.2289 16.127 26.2303 16.1227 26.2303L15.8036 26.3571L15.6596 26.058L15.5587 25.8459C15.3852 25.4727 15.4489 24.9273 15.9164 24.5983L16.826 24.1056L17.6911 24.2694C17.7119 24.1896 17.743 23.9048 17.7682 23.8322C17.7519 23.8308 17.7356 23.8265 17.7192 23.8265L17.2207 24.0045L16.7399 23.6855C16.7399 23.6855 16.5514 23.5117 16.722 23.338L17.188 22.6616L16.0083 21.2403L17.8216 21.9553L17.9419 21.8114L18.1866 21.5309L18.4642 21.7844C18.5428 21.857 18.5873 21.9466 18.6095 22.0364C19.1096 22.223 20.0044 22.7741 20.083 23.6698L19.8026 23.778V23.7852C19.8664 23.8578 19.9198 23.8878 19.9361 23.8905L21.2301 24.0131C21.2627 24.0073 21.3043 23.9931 21.3503 23.9803C21.5106 23.9276 21.7524 23.8521 22.0388 23.8521C22.2718 23.8521 22.4972 23.9033 22.7139 24.0002C22.7941 23.9718 22.892 23.9504 23.0048 23.9433L23.067 23.9419C23.7601 23.9419 24.1043 24.4388 24.3804 24.8348C24.4263 24.903 24.4723 24.9686 24.5198 25.0326C24.7616 25.3602 25.0777 25.8401 25.0911 25.8601L25.2335 26.0738L25.0584 26.2688C24.9234 26.4183 24.7216 26.5935 24.3744 26.5935C24.3032 26.5935 24.2245 26.5864 24.14 26.5706C24.0658 26.5579 23.999 26.5364 23.9337 26.5109C23.9233 26.5764 23.91 26.6547 23.8966 26.7216L23.6696 27.858C25.0273 27.5377 25.8894 26.5536 25.8894 25.1466L25.8909 20.8957Z" fill="#FFDD2D"/>
<path d="M14.1196 20.5539H23.2736C22.8165 20.1011 22.8225 19.5272 22.9397 19.1541C22.8061 19.0928 22.6964 19.0187 22.5984 18.939C22.2408 19.1924 21.1487 19.9558 20.8638 20.1466L20.803 20.1865L17.2105 19.5628H17.1378C17.0518 19.5628 16.9256 19.5599 16.7876 19.5442C16.749 19.6995 16.6096 19.8063 16.4493 19.8063C16.4314 19.8063 16.4107 19.8049 16.3914 19.8006C16.2979 19.7849 16.2164 19.7393 16.1615 19.6638C16.1051 19.5898 16.0828 19.5015 16.0991 19.4104L16.1125 19.3363C15.7415 19.0857 15.4002 18.526 15.5515 17.9364L15.5664 17.8738L15.6184 17.8382C15.6258 17.8325 15.688 17.7926 15.7801 17.7414L15.5189 17.7029C15.421 17.6858 15.3557 17.5989 15.3706 17.5064C15.3869 17.4124 15.4789 17.3454 15.5753 17.364L16.197 17.458L16.2534 15.356L17.1794 14.4161L17.7566 15.5825L17.1467 17.6046L17.6958 17.6872C17.7922 17.7015 17.859 17.7883 17.8442 17.8837C17.8293 17.9677 17.7551 18.0262 17.6676 18.0262C17.6586 18.0262 17.6483 18.0262 17.6393 18.0248L17.1927 17.955C17.1987 17.9677 17.2075 17.9748 17.2135 17.9891C17.261 18.0831 17.3664 18.1515 17.4286 18.18L20.1679 18.2213C20.2836 18.113 20.5715 17.8424 20.8668 17.5562C20.1931 17.3113 19.9483 16.753 19.9067 16.3827C19.5298 16.2289 19.2701 15.9983 19.1262 15.6977C18.9511 15.3262 19.0134 14.9544 19.0594 14.7736C18.6944 14.6454 18.3101 14.4119 17.9183 14.0388H13.7932C13.9698 14.4944 14.1196 14.9886 14.1196 15.4799V20.5539Z" fill="#FFDD2D"/>
<path d="M17.8901 22.7396C17.8233 22.7338 17.767 22.7836 17.7625 22.8463C17.758 22.9118 17.8085 22.9673 17.8768 22.9687C17.942 22.9745 17.9999 22.926 18.0058 22.862C18.0058 22.7993 17.9584 22.741 17.8901 22.7396Z" fill="black"/>
<path d="M25.8748 30.4452L25.1967 30.1959L25.3836 29.5238L25.5898 28.7904C25.5898 28.7904 24.3879 29.4157 22.6948 29.8856C22.2141 30.018 21.8505 30.0778 21.8505 30.0778V30.5762C21.8505 30.5762 20.9454 30.7272 20.0298 30.7272H20.0194H20.0061H19.9883H19.9778C19.0624 30.7272 18.1572 30.5762 18.1572 30.5762V30.0778C18.1572 30.0778 17.7921 30.018 17.3128 29.8856C15.6197 29.4157 14.4193 28.7904 14.4193 28.7904L14.6225 29.5238L14.814 30.1959L14.1344 30.4452L13.3806 30.7157C14.2457 31.1159 15.4431 31.6999 16.5398 31.9875L16.2816 32.6653C16.2816 32.6653 17.6719 33.2734 19.9883 33.2792V33.2806H19.9957H20.0061H20.015H20.0209V33.2792C22.3402 33.2734 23.7291 32.6653 23.7291 32.6653L23.4693 31.9875C24.5659 31.6999 25.7665 31.1159 26.6271 30.7157L25.8748 30.4452ZM14.1848 30.7613L15.3007 30.4054L14.9713 29.3729C15.4624 29.6406 16.565 30.0422 17.203 30.2287L16.6644 31.6485C15.679 31.388 14.8585 31.0846 14.1848 30.7613ZM20.0061 32.9231C18.7106 32.9231 17.2312 32.6369 16.7965 32.4888L17.4582 30.7699C18.0073 30.9238 19.1499 31.0875 19.9793 31.0817H19.9808H20.0061H20.0283H20.0313C20.8608 31.0875 22.0004 30.9238 22.5524 30.7699L23.2126 32.4888C22.7779 32.6383 21.3 32.9231 20.0061 32.9231ZM23.3447 31.6485L22.8076 30.2287C23.4471 30.0422 24.5466 29.6406 25.0393 29.3729L24.7114 30.4054L25.8258 30.7613C25.1506 31.0846 24.3344 31.388 23.3447 31.6485Z" fill="black"/>
<path d="M20.0047 3.61566C21.3847 3.61566 22.4886 4.05434 23.0986 4.52289C23.0986 4.52289 23.2796 3.47612 23.8984 2.55194L22.7869 2.67294L22.2053 1.48671L21.0879 2.03928L20.0047 1.01105L18.9245 2.03928L17.8057 1.48671L17.2255 2.67294L16.114 2.55194C16.7327 3.47612 16.9138 4.52289 16.9138 4.52289C17.5251 4.05434 18.6262 3.61566 20.0047 3.61566ZM17.1749 3.08877L17.4836 3.12014L17.6172 2.85098L18.0059 2.05351L18.7271 2.41089L19.0061 2.54763L19.2287 2.33691L20.0062 1.59639L20.7852 2.33691L21.0078 2.54763L21.2868 2.41089L22.0035 2.05351L22.3967 2.85098L22.5273 3.12014L22.8359 3.08877L23.1297 3.05458C22.9947 3.34659 22.8953 3.62278 22.824 3.85214C22.0465 3.43632 21.0345 3.19984 20.0033 3.19984C18.9765 3.19984 17.9659 3.43632 17.1853 3.85214C17.1127 3.62278 17.0147 3.34509 16.8796 3.05458L17.1749 3.08877Z" fill="black"/>
<path d="M36.1951 17.5048C37.9803 17.5048 38.5767 15.7618 38.6019 15.6877L38.8008 15.0738L38.1315 15.0938H38.1286C37.8927 15.0938 35.9236 15.0439 34.5273 13.3408L34.3952 13.1827C33.4826 12.0691 32.6176 11.011 31.0713 10.5282C31.1159 10.4898 31.1797 10.4413 31.2672 10.3872C32.0878 9.86886 32.5656 9.23936 32.6858 8.50886C32.8608 7.40945 32.1309 6.53363 32.0982 6.49803L31.6011 5.90848L31.291 6.6077C31.2702 6.65182 30.7478 7.7712 29.6498 7.7712H29.5682C29.4926 7.76688 29.4213 7.76404 29.35 7.75831C29.3887 7.25851 29.2936 6.48521 28.5637 5.76033C27.6866 4.88737 26.6094 4.75635 26.0456 4.75635C25.7443 4.75635 25.544 4.79194 25.5231 4.79485L24.7724 4.9372L25.2353 5.52254C25.5989 5.97395 25.9283 6.80709 25.538 7.24285C25.4133 7.38098 25.1567 7.49346 24.9104 7.60594C24.4044 7.82949 23.7144 8.13996 23.7144 8.9318C23.7144 9.44449 24.1284 9.97992 24.8792 10.4356C27.1021 11.7771 28.4731 13.177 29.0652 14.7221C29.9807 17.099 28.7862 18.4546 27.6258 19.1681L27.1049 19.4899L27.5605 19.8915C27.6213 19.9428 28.1793 20.4142 29.0028 20.4826C29.1586 20.4925 29.3085 20.501 29.448 20.501C29.9763 20.501 30.4259 20.4213 30.7909 20.3144C30.69 20.4839 30.5668 20.6563 30.411 20.83C29.7478 21.5676 28.9316 21.9038 27.7579 21.9209L27.3216 21.928L27.2875 22.3481C27.283 22.4321 27.2505 23.2111 28.019 23.8733C28.1363 23.9757 28.2787 24.0599 28.4271 24.1297C27.9063 24.5797 27.3765 25.3629 27.2742 26.7058C27.1881 27.8265 26.9091 28.241 26.9062 28.2452L26.4239 28.9515L27.295 28.963C28.7343 28.963 29.8368 28.5813 30.6009 27.8265C31.0521 27.3794 31.3103 26.8752 31.4631 26.4281C31.7139 26.6331 32.0374 26.8125 32.4587 26.908C32.619 26.9436 32.7942 26.9635 32.9826 26.9635C33.3892 26.9635 33.729 26.8809 33.7676 26.8724L34.324 26.73L34.0777 26.2315C34.0599 26.1917 33.5954 25.192 34.0954 23.765C34.3106 23.1484 34.4204 22.5958 34.4738 22.1658C34.824 22.3409 35.293 22.4862 35.8998 22.4876C37.2768 22.4876 37.8838 21.5008 37.912 21.4595L38.1835 21.0065L37.6805 20.8072C36.0393 20.1536 35.6758 18.3976 35.6031 17.4464C35.7514 17.4735 35.9206 17.4991 36.112 17.5048H36.1951ZM37.4964 21.2273C37.4964 21.2273 37.0157 22.0291 35.9132 22.0291H35.8998C34.5762 22.0219 34.042 21.2472 34.042 21.2472C34.042 21.2472 34.1192 22.2556 33.6414 23.6155C33.0672 25.2546 33.6458 26.4267 33.6458 26.4267C33.6458 26.4267 33.3372 26.5064 32.9811 26.5064C32.8446 26.5064 32.7021 26.4936 32.5686 26.4594C31.4631 26.2073 31.1872 25.2418 31.1872 25.2418C31.1872 25.2418 31.2895 28.5044 27.3261 28.5044H27.295C27.295 28.5044 27.6436 28.0487 27.7475 26.737C27.9359 24.3162 29.6439 23.9844 29.6439 23.9844C29.6439 23.9844 28.7327 23.8747 28.3381 23.5344C27.7207 22.9975 27.7638 22.3765 27.7638 22.3765C29.1586 22.358 30.0712 21.9024 30.7671 21.1291C31.521 20.2917 31.6456 19.3903 31.6456 19.3903C31.6456 19.3903 30.8962 20.0425 29.4466 20.0425C29.319 20.0425 29.1824 20.0368 29.0429 20.024C28.3573 19.9713 27.8825 19.5526 27.8825 19.5526C29.3916 18.6241 30.4511 17.0035 29.5118 14.5626C28.7595 12.6073 26.9522 11.1463 25.133 10.0454C24.5275 9.68228 24.1906 9.27931 24.1906 8.9318C24.1906 8.11439 25.4015 8.08874 25.8987 7.53901C26.4713 6.90103 26.1122 5.86577 25.6152 5.24345C25.6152 5.24345 25.7829 5.21067 26.047 5.21067C26.5708 5.21067 27.4774 5.33738 28.2223 6.07791C29.2121 7.06052 28.801 8.13004 28.801 8.13004L29.0666 8.17991C29.2254 8.21263 29.3828 8.21837 29.5459 8.22545C29.5815 8.22545 29.6172 8.22687 29.6527 8.22687C31.0906 8.22687 31.7332 6.78424 31.7332 6.78424C31.7332 6.78424 33.2616 8.58862 31.012 10.0012C30.6247 10.2434 30.454 10.4669 30.4986 10.7062L30.5342 10.8629L30.6944 10.8899C32.3252 11.3143 33.1503 12.3938 34.1578 13.6213C35.6876 15.4883 37.8527 15.5481 38.1197 15.5481H38.1479C38.1479 15.5481 37.6537 17.0448 36.1981 17.0448C36.1743 17.0448 36.1536 17.0448 36.1284 17.0434C35.4592 17.0205 35.1164 16.7743 35.1164 16.7743C35.1164 16.7743 34.8537 20.1735 37.4964 21.2273Z" fill="black"/>
<path d="M33.0596 10.7164C33.7258 11.0566 34.1131 11.5124 34.4529 11.9168C34.7868 12.3112 35.1044 12.6915 35.5999 12.8496C35.7765 12.908 35.9634 12.9351 36.1534 12.9351C36.8983 12.9351 37.6462 12.4978 37.9296 11.8926L38.2145 11.2859L37.5246 11.2461C37.4918 11.2446 36.6045 11.1677 35.6163 10.1979C35.2097 9.8007 34.7185 9.59125 34.1888 9.59125C33.5419 9.59125 33.0625 9.90171 33.0091 9.93309L32.374 10.3618L33.0596 10.7164ZM34.1903 10.0499C34.5226 10.0499 34.9099 10.1581 35.2765 10.5212C36.4264 11.642 37.4963 11.7046 37.4963 11.7046C37.302 12.1176 36.7381 12.4808 36.1549 12.4808C36.0199 12.4808 35.8848 12.4609 35.7498 12.4167C34.9589 12.1604 34.6755 11.0211 33.2851 10.3118C33.2851 10.3118 33.674 10.0499 34.1903 10.0499Z" fill="black"/>
<path d="M33.3709 16.7672V16.79C32.9703 13.6884 30.6228 11.4483 28.0112 10.0855C27.7694 9.96151 27.5468 9.85618 27.3302 9.75503C28.1255 9.87325 29.4061 9.88748 30.3943 9.06433C30.3943 9.06433 28.8822 10.1324 25.7839 9.16265C26.6417 9.69666 28.308 10.45 29.829 11.6704C33.6322 14.8774 30.9107 18.0061 30.9107 18.0061C32.2774 16.6377 32.3337 15.1709 31.9316 13.9732C32.6513 15.1224 33.1113 16.518 33.04 18.2383C32.9348 20.7034 31.5236 22.8352 30.0381 24.5484C29.3244 25.3801 29.1643 26.4011 29.1643 26.4011C29.1643 26.4011 29.4521 25.4997 30.2786 24.5726C31.8708 22.784 33.2314 20.9255 33.4095 18.2482C33.5742 18.7339 34.2524 20.0854 35.3282 20.5937C35.3311 20.5951 33.9793 19.8134 33.3709 16.7672Z" fill="black"/>
<path d="M13.1031 28.2437C13.1017 28.2395 12.8257 27.8251 12.7367 26.7043C12.6328 25.3614 12.1045 24.5781 11.5822 24.1281C11.7336 24.0598 11.873 23.9758 11.9903 23.8718C12.7575 23.2096 12.7247 22.4307 12.7203 22.3467L12.6906 21.9265L12.2514 21.9194C11.0807 21.9008 10.263 21.5648 9.59973 20.8285C9.44542 20.6548 9.32081 20.4825 9.21989 20.313C9.58484 20.4198 10.0315 20.4996 10.5613 20.4996C10.7038 20.4996 10.8507 20.491 11.0065 20.4811C11.83 20.4127 12.3879 19.9427 12.4502 19.8901L12.9058 19.4885L12.3849 19.1666C11.2201 18.4517 10.03 17.096 10.9441 14.7207C11.5361 13.1755 12.9058 11.7756 15.1316 10.4341C15.8825 9.97838 16.2934 9.44302 16.2934 8.93033C16.2934 8.13855 15.6049 7.82667 15.0989 7.60447C14.8526 7.49199 14.5959 7.3795 14.4713 7.24138C14.0795 6.807 14.4104 5.97254 14.7725 5.52103L15.2384 4.93579L14.4846 4.79334C14.4624 4.79053 14.265 4.75494 13.9623 4.75494C13.3984 4.75494 12.3241 4.88596 11.4456 5.75891C10.7141 6.4852 10.6177 7.25845 10.6548 7.75683C10.5836 7.76257 10.5123 7.76547 10.4381 7.76965H10.358C9.257 7.76965 8.73619 6.65041 8.71543 6.60621L8.40519 5.90698L7.90367 6.49654C7.8755 6.53222 7.14251 7.40939 7.32055 8.50738C7.43924 9.23789 7.91702 9.86731 8.73758 10.3857C8.82662 10.4399 8.88896 10.4882 8.93348 10.5268C7.38882 11.0094 6.52518 12.069 5.61257 13.1826L5.4805 13.3407C4.08574 15.0439 2.11215 15.0938 1.87622 15.0938L1.2041 15.0738L1.40881 15.6875C1.43257 15.7616 2.02759 17.5047 3.81412 17.5047L3.90023 17.5019C4.08865 17.4962 4.25786 17.472 4.40924 17.4435C4.33496 18.3933 3.97141 20.1493 2.32878 20.8043L1.82724 21.0037L2.09887 21.4566C2.12553 21.4979 2.73394 22.4848 4.11386 22.4848C4.71635 22.4833 5.18521 22.338 5.53693 22.1629C5.59036 22.5929 5.70014 23.1455 5.91532 23.7621C6.41541 25.1891 5.94945 26.1888 5.93161 26.2287L5.6853 26.7271L6.24328 26.8695C6.28033 26.878 6.62313 26.9606 7.02818 26.9606C7.21814 26.9606 7.39328 26.9407 7.55059 26.9051C7.97349 26.8097 8.29987 26.6303 8.54762 26.4252C8.699 26.8723 8.95871 27.3765 9.40838 27.8236C10.1739 28.5784 11.275 28.96 12.7143 28.96L13.5869 28.9487L13.1031 28.2437ZM12.6817 28.5043C8.71829 28.5043 8.81929 25.2418 8.81929 25.2418C8.81929 25.2418 8.5433 26.2073 7.43779 26.4594C7.30571 26.4935 7.16471 26.5064 7.02672 26.5064C6.67064 26.5064 6.36343 26.4266 6.36343 26.4266C6.36343 26.4266 6.93915 25.2546 6.36488 23.6155C5.8901 22.2554 5.9673 21.2473 5.9673 21.2473C5.9673 21.2473 5.43453 22.022 4.1095 22.029H4.09611C2.99363 22.029 2.51284 21.2273 2.51284 21.2273C5.15408 20.1749 4.89439 16.777 4.89439 16.777C4.89439 16.777 4.55169 17.022 3.88093 17.0462C3.85718 17.0476 3.83497 17.0476 3.8112 17.0476C2.354 17.0476 1.86138 15.5509 1.86138 15.5509H1.89105C2.15967 15.5509 4.32167 15.4911 5.85151 13.6241C6.85906 12.3966 7.68555 11.3185 9.31333 10.8928L9.47651 10.8657L9.51223 10.709C9.55675 10.4697 9.38755 10.2462 9.0003 10.0041C6.75074 8.58997 8.27911 6.78705 8.27911 6.78705C8.27911 6.78705 8.91867 8.2283 10.3595 8.2283C10.3951 8.2283 10.4278 8.22681 10.4648 8.22681C10.6265 8.21824 10.7869 8.21257 10.9441 8.17985L11.2098 8.12998C11.2098 8.12998 10.7987 7.06052 11.7899 6.0779C12.5349 5.33598 13.4415 5.21066 13.9637 5.21066C14.2294 5.21066 14.3941 5.24335 14.3941 5.24335C13.8985 5.86709 13.5394 6.90103 14.1121 7.53902C14.6078 8.08727 15.8171 8.11433 15.8171 8.93175C15.8171 9.27777 15.4803 9.68229 14.8749 10.0454C13.0541 11.1462 11.2469 12.6073 10.496 14.5626C9.55822 17.0035 10.6162 18.6226 12.1282 19.5526C12.1282 19.5526 11.6534 19.9712 10.9664 20.024C10.8269 20.0368 10.6919 20.0424 10.5613 20.0424C9.11303 20.0424 8.36368 19.3901 8.36368 19.3901C8.36368 19.3901 8.48829 20.2917 9.23771 21.129C9.93806 21.9023 10.8507 22.358 12.2455 22.3766C12.2455 22.3766 12.29 22.9975 11.6727 23.5342C11.2766 23.8732 10.3654 23.9843 10.3654 23.9843C10.3654 23.9843 12.0748 24.3161 12.2618 26.737C12.3642 28.0486 12.7099 28.5043 12.7099 28.5043H12.6817Z" fill="black"/>
<path d="M3.85453 12.9366C4.04596 12.9366 4.23291 12.9095 4.40941 12.8511C4.90804 12.693 5.22408 12.3128 5.55795 11.9183C5.89929 11.5139 6.2836 11.0582 6.9498 10.7179L7.6354 10.3647L6.99877 9.936C6.94534 9.90327 6.46755 9.5943 5.8221 9.5943C5.29089 9.5943 4.79827 9.80219 4.39312 10.2008C3.40487 11.1693 2.51902 11.2475 2.48634 11.249L1.79639 11.2874L2.07984 11.8955C2.36464 12.4979 3.11104 12.9366 3.85453 12.9366ZM4.73291 10.5228C5.10092 10.1595 5.48823 10.0514 5.8221 10.0514C6.33547 10.0514 6.72424 10.3133 6.72424 10.3133C5.3354 11.024 5.05049 12.1619 4.25658 12.4182C4.12605 12.4623 3.98952 12.4823 3.85453 12.4823C3.27133 12.4823 2.70744 12.1206 2.51456 11.7062C2.51456 11.7048 3.58291 11.642 4.73291 10.5228Z" fill="black"/>
<path d="M6.96906 18.2398C6.89489 16.5194 7.35492 15.1238 8.07602 13.9746C7.67388 15.1723 7.72881 16.6391 9.09696 18.0077C9.09696 18.0077 6.3755 14.8789 10.1801 11.6719C11.7026 10.4514 13.3675 9.69805 14.2237 9.16404C11.1269 10.1338 9.61476 9.0658 9.61476 9.0658C10.603 9.88895 11.8836 9.87471 12.679 9.75515C12.4639 9.85615 12.2382 9.96155 11.9993 10.0854C9.38483 11.4483 7.03879 13.6884 6.63664 16.79V16.7659C6.02979 19.812 4.67944 20.5938 4.67944 20.5938C5.7538 20.0853 6.43048 18.7353 6.59514 18.2483C6.77473 20.9256 8.13535 22.784 9.72756 24.5727C10.5541 25.4997 10.8449 26.4012 10.8449 26.4012C10.8449 26.4012 10.6832 25.3801 9.96652 24.5484C8.4841 22.8381 7.07293 20.7049 6.96906 18.2398Z" fill="black"/>
<path d="M19.1099 11.9638V12.579C19.331 12.3212 19.7584 12.374 19.7584 12.374V13.2612C19.7584 13.2612 19.7435 13.697 19.5818 13.8863H20.0447H20.5062C20.3475 13.6984 20.331 13.2612 20.331 13.2612V12.374C20.331 12.374 20.7584 12.3212 20.9781 12.579V11.9638H20.0447H19.1099Z" fill="black"/>
<path d="M18.7121 8.3153C19.0074 8.54041 19.1781 8.57738 19.184 8.5817L19.2998 8.63291V8.05329L18.2136 7.61469C18.2136 7.6161 18.224 7.95072 18.7121 8.3153Z" fill="black"/>
<path d="M21.2958 8.3153C21.787 7.95072 21.7959 7.61469 21.7959 7.61469L20.7097 8.05329V8.63291L20.8239 8.5817C20.8314 8.57738 21.0005 8.54041 21.2958 8.3153Z" fill="black"/>
<path d="M23.2524 5.95557C23.2524 5.07691 21.7107 4.28656 20.0087 4.28656H20.0072H20.0028H19.9983C18.2963 4.28656 16.7546 5.07691 16.7546 5.95557L16.7888 6.17201L17.4683 9.91593L16.7858 10.2962L15.0199 11.2859H15.026C15.026 11.2859 14.6283 11.481 14.4442 11.602C13.7721 12.0507 13.6296 12.7043 14.0198 12.9749C14.1163 12.4423 14.5555 11.884 15.3776 11.884C15.9697 11.884 16.4207 12.1774 16.7858 12.6174C16.8793 12.7285 16.9683 12.8467 17.0514 12.9749C17.1537 13.1357 17.2561 13.2768 17.3586 13.4135H12.8105C13.1444 14.0586 13.4619 14.7422 13.4619 15.4841V25.1451C13.4619 27.4834 15.336 28.5999 17.363 28.5999C18.9299 28.5999 19.1407 28.5316 20.0058 29.3575C20.8664 28.5301 21.0771 28.5999 22.6456 28.5999C24.674 28.5999 26.5452 27.4834 26.5452 25.1451V15.4841C26.5452 14.7422 26.8627 14.0586 27.1981 13.4135H22.6485C22.7494 13.2782 22.8518 13.1357 22.9541 12.9749C23.0388 12.8467 23.1263 12.7285 23.2183 12.6174C23.5863 12.176 24.0359 11.884 24.628 11.884C25.45 11.884 25.8878 12.4409 25.9857 12.9749C26.376 12.7043 26.235 12.0507 25.5583 11.602C25.3773 11.481 24.9796 11.2859 24.9796 11.2859H24.9856L23.2198 10.2962L22.5402 9.91593L23.2198 6.17201L23.2524 5.95557ZM17.4238 6.39134L19.8128 7.16887V10.7704L18.0545 9.88037L17.4238 6.39134ZM17.9179 14.0415C18.3097 14.416 18.6941 14.6482 19.059 14.7763C19.0115 14.9572 18.9493 15.3304 19.1258 15.7019C19.2697 16.001 19.5309 16.2318 19.9063 16.3856C19.9479 16.7559 20.1912 17.3126 20.8664 17.5591C20.5711 17.8452 20.2832 18.1144 20.166 18.224L17.4282 18.1827C17.366 18.1528 17.2606 18.0859 17.2132 17.9905C17.2072 17.9777 17.1983 17.9705 17.1939 17.9563L17.6404 18.0261C17.6509 18.0275 17.6597 18.0275 17.6687 18.0275C17.7548 18.0275 17.8304 17.9705 17.8453 17.8851C17.8601 17.7897 17.7933 17.7028 17.6969 17.6885L17.1478 17.6059L17.7577 15.5851L17.1805 14.4189L16.2546 15.3588L16.1981 17.4607L15.5765 17.3667C15.4799 17.3482 15.388 17.4166 15.3717 17.5091C15.3568 17.6018 15.4221 17.6885 15.52 17.7057L15.7812 17.7441C15.6877 17.7954 15.6269 17.8352 15.6194 17.8409L15.566 17.8765L15.5512 17.9393C15.3999 18.5288 15.7426 19.0885 16.1122 19.3391L16.0987 19.4131C16.0839 19.5044 16.1047 19.5925 16.1611 19.6666C16.2145 19.7421 16.2976 19.7877 16.3895 19.8033C16.4089 19.8062 16.4296 19.8076 16.4475 19.8076C16.6077 19.8076 16.7472 19.7008 16.7873 19.5456C16.9252 19.5612 17.0514 19.5641 17.1374 19.5641H17.2102L20.8026 20.1864L20.8634 20.148C21.1497 19.9557 22.2404 19.1925 22.5981 18.9403C22.696 19.0216 22.8058 19.0956 22.9393 19.1568C22.8236 19.5299 22.8162 20.1038 23.2747 20.5567H14.1193V15.4856C14.1193 14.9943 13.9694 14.5001 13.7928 14.0444H17.9179V14.0415ZM22.3576 18.6812C21.9941 18.9375 21.0593 19.5925 20.721 19.8204L17.4565 19.2579C17.464 19.2294 17.4713 19.2024 17.4788 19.1739C17.5217 19.0115 17.5648 18.7894 17.5678 18.5288L20.3114 18.5715L20.3634 18.5202C20.4049 18.4804 21.2745 17.6743 21.7182 17.2101C21.8235 17.3368 21.9555 17.4579 22.1276 17.5647C22.0683 17.8723 22.0935 18.3109 22.3576 18.6812ZM16.8926 18.1385C16.9698 18.2938 17.1092 18.3978 17.2057 18.4562C17.2027 18.6014 17.1879 18.8278 17.1478 19.0272C17.1389 19.0713 17.1271 19.1126 17.1137 19.1539C17.1063 19.1797 17.0989 19.201 17.0929 19.218C16.949 19.218 16.6655 19.201 16.4341 19.1198C16.1774 19.0286 15.7946 18.5772 15.8836 18.0802C15.9949 18.0147 16.2516 17.8765 16.492 17.8765C16.6775 17.8751 16.8036 17.9591 16.8926 18.1385ZM16.5528 17.5134L16.6077 15.4955L17.0796 15.0156L17.3764 15.6109L16.7917 17.5476L16.5528 17.5134ZM22.328 27.9747C22.1499 27.9747 21.9852 27.9776 21.8368 27.9833L22.2256 26.8226C22.2865 26.6617 21.9793 26.4552 21.8531 26.2744C22.0445 26.3898 22.5402 26.6418 22.7791 26.743C22.7539 26.7799 22.328 27.9747 22.328 27.9747ZM23.5477 26.656L23.294 27.9264C23.1323 27.9477 22.9601 27.959 22.7835 27.9662L23.0507 26.7444C23.1307 26.3811 22.1144 26.2687 21.6128 25.5552C21.3679 25.8201 20.9065 25.8985 20.4435 25.8985C20.0206 25.8985 19.5977 25.8329 19.341 25.7845C19.2757 25.7746 19.2133 25.7674 19.1525 25.7674C19.0042 25.7674 18.8691 25.8116 18.7756 25.9625L18.7014 26.0821L17.317 25.7689L16.9728 26.3157C16.9238 26.404 16.9208 26.4795 16.9995 26.562L17.0929 26.6604C17.0291 26.854 16.7413 27.1459 16.7413 27.1459L16.5351 26.8995C16.3717 26.7244 16.3985 26.4054 16.5692 26.1092L17.1181 25.2191L18.2905 25.3815L18.1079 24.9827C17.8631 24.4558 18.2355 23.7851 18.2756 23.3991C18.2622 23.5159 18.1509 23.5416 18.0203 23.5416C17.9017 23.5416 17.7696 23.5202 17.682 23.5202C17.6479 23.5202 17.6182 23.523 17.6019 23.5344L17.2843 23.7196L17.0336 23.5074C17.0039 23.4661 16.9935 23.3706 17.0677 23.2995L17.6479 22.6757L16.9624 21.9082L17.9224 22.371L18.2147 22.0306C18.2949 22.1061 18.2608 22.304 18.2608 22.304C18.5605 22.3111 19.4003 22.757 19.4449 23.7965C19.4478 23.8277 19.4478 23.8634 19.4478 23.8975C19.4478 23.8975 19.4553 23.9104 19.4701 23.9317C19.5294 24.0101 19.6926 24.2109 19.9003 24.2294L21.227 24.3547H21.2328C21.3784 24.3547 21.6677 24.191 22.0386 24.191C22.2404 24.191 22.466 24.2408 22.7064 24.386C22.7064 24.386 22.8265 24.2949 23.0224 24.2849C23.0372 24.2835 23.0537 24.2835 23.0685 24.2835C23.6635 24.2835 23.9098 24.7991 24.2288 25.2277C24.4693 25.5538 24.7898 26.038 24.7898 26.038C24.671 26.1732 24.5612 26.2473 24.3772 26.2473C24.3268 26.2473 24.2689 26.243 24.2065 26.2317C23.5685 26.1191 23.4766 24.8603 23.113 24.7605C23.0937 24.7549 23.073 24.7535 23.0551 24.7535C22.9379 24.7535 22.886 24.8532 22.886 24.8532C23.052 25.2817 22.9557 25.4556 23.1338 25.7859C23.2672 26.0309 23.5046 26.2331 23.6026 26.3285C23.6026 26.3313 23.5759 26.5165 23.5477 26.656ZM16.4237 25.4541L16.4845 25.6008C16.4445 25.729 15.9845 25.9112 15.9845 25.9112L15.885 25.7033C15.7797 25.4811 15.8019 25.1066 16.1225 24.8773L16.8674 24.4416L17.6568 24.6024C17.642 24.8431 17.7918 25.0226 17.7918 25.0226L16.9638 24.8703L16.4682 25.1992C16.3851 25.2547 16.3792 25.3587 16.4237 25.4541ZM23.6724 27.8566L23.8995 26.7201C23.9113 26.6532 23.9261 26.5749 23.9365 26.5093C24.0003 26.5351 24.0686 26.5564 24.1427 26.5692C24.2273 26.5849 24.3059 26.5919 24.3772 26.5919C24.7245 26.5919 24.9263 26.4168 25.0613 26.2672L25.2364 26.0722L25.0939 25.8586C25.0806 25.8372 24.766 25.3587 24.5227 25.0311C24.4751 24.9671 24.4291 24.903 24.3832 24.8332C24.1072 24.4373 23.7614 23.9404 23.0685 23.9404L23.0061 23.9418C22.8919 23.9489 22.794 23.9702 22.7153 23.9987C22.4971 23.9004 22.2731 23.8506 22.0401 23.8506C21.7537 23.8506 21.5118 23.9261 21.3516 23.9788C21.3056 23.9916 21.2641 24.0058 21.2315 24.0115L19.936 23.889C19.9197 23.8862 19.8662 23.8564 19.8024 23.7823V23.7765L20.0829 23.6683C20.0043 22.7726 19.108 22.2214 18.608 22.0349C18.5857 21.9451 18.5412 21.8554 18.4626 21.7828L18.1836 21.5293L17.9387 21.8113L17.8186 21.9552L16.0053 21.2402L17.185 22.6615L16.719 23.3379C16.5483 23.5117 16.7368 23.6854 16.7368 23.6854L17.2175 24.003L17.7162 23.825C17.7339 23.825 17.7488 23.8293 17.7651 23.8306C17.7414 23.9032 17.7102 24.1881 17.6894 24.2678L16.8243 24.1041L15.9147 24.5968C15.4473 24.9258 15.3835 25.4712 15.5572 25.8444L15.658 26.0564L15.8019 26.3556L16.1195 26.2288C16.124 26.2274 16.1284 26.2259 16.1313 26.2232C16.0171 26.5735 16.0632 26.9066 16.2679 27.126L16.4608 27.3596L16.7175 27.6714L16.9995 27.3809C17.0826 27.3011 17.3512 27.0121 17.4343 26.7643L17.4951 26.5748L17.3571 26.4296L17.3348 26.404L17.4892 26.159L18.6183 26.4139L18.8721 26.4695L19.0071 26.2558L19.0813 26.139C19.0947 26.1149 19.0991 26.1106 19.1511 26.1106C19.1911 26.1106 19.2312 26.1149 19.2742 26.1234C19.7 26.2003 20.0932 26.2388 20.442 26.2388C20.7803 26.2388 20.9821 26.2259 21.224 26.1491C21.224 26.1491 21.8309 26.8098 21.8516 26.8355L21.4807 27.9349L21.4644 28.0018C20.761 28.0558 20.4183 28.204 20.0043 28.6013C19.4033 28.0288 18.9774 27.9691 17.3616 27.9691C15.428 27.9691 14.1178 26.8811 14.1178 25.1437V20.8957H25.8878L25.8908 25.1437C25.8922 26.5535 25.0301 27.5361 23.6724 27.8566ZM26.2172 14.0415C26.0377 14.4972 25.8878 14.9914 25.8878 15.4827L25.8893 18.6527C25.1992 18.5417 25.1177 17.8281 25.1147 17.7968L25.1013 17.6516L24.953 17.6387C24.6532 17.6117 24.4544 17.4891 24.2867 17.3326C23.9484 17.0079 23.9468 16.481 23.9484 16.4767C23.944 16.5037 23.5759 16.9978 24.0033 17.5376C24.1828 17.7655 24.4425 17.9051 24.7794 17.9606C24.858 18.3565 25.1651 18.9147 25.8893 19.0002V20.5524H23.8534C22.9141 20.0512 23.3118 19.1682 23.331 19.1312L23.4112 18.9631L23.2317 18.8976C22.2152 18.5359 22.4942 17.5618 22.509 17.5205L22.5505 17.3781L22.4126 17.3155C21.5726 16.9423 21.687 15.9356 21.6974 15.8943C21.4392 16.095 21.3456 16.5051 21.5237 16.9068C21.4273 17.0122 21.2983 17.1403 21.1572 17.2798C20.2877 17.0678 20.261 16.3001 20.261 16.2646L20.2594 16.1463L20.1452 16.1036C19.8054 15.9825 19.5724 15.8017 19.4582 15.5581C19.3291 15.2891 19.3751 15.0071 19.4108 14.8717C19.5102 14.8931 19.6095 14.9088 19.7045 14.9159C19.8024 14.9258 19.9034 14.9316 20.0043 14.9316H20.0102H20.0176C20.1185 14.9316 20.218 14.9258 20.3159 14.9159C20.8575 14.8646 21.4644 14.6411 22.0965 14.0401H26.2172V14.0415ZM23.0447 10.8373L23.8489 11.2859H23.8608L24.0626 11.3984C23.6086 11.5195 23.2614 11.7373 22.9706 12.0236C22.9602 12.0321 22.9498 12.0435 22.9393 12.0535C22.8726 12.1218 22.8058 12.1959 22.7435 12.2714C22.7316 12.2857 22.7197 12.3013 22.7064 12.317C22.644 12.3938 22.5862 12.4722 22.5298 12.5548C22.5209 12.5691 22.5105 12.5833 22.5001 12.596C22.4333 12.6915 22.3696 12.794 22.3058 12.8994C21.733 13.8464 20.8189 14.4118 20.0058 14.4132C19.1941 14.4118 18.28 13.8464 17.7072 12.8994C17.6449 12.7968 17.5826 12.6972 17.5158 12.6003C17.5025 12.5818 17.4906 12.5633 17.4788 12.5476C17.4224 12.4693 17.366 12.3924 17.3081 12.3199C17.2933 12.2999 17.2799 12.2842 17.265 12.2671C17.2027 12.1944 17.1389 12.1218 17.0751 12.0549C17.0618 12.045 17.0529 12.0321 17.0395 12.0207C16.7472 11.7345 16.4014 11.518 15.9459 11.3984L16.1507 11.2859H16.1595L16.9638 10.8373L17.7903 10.3831L19.9983 11.5365L20.0028 11.5323L20.0087 11.5365L22.2167 10.3831L23.0447 10.8373ZM21.9555 9.88171L20.1957 10.7718V7.16887L22.5832 6.39134L21.9555 9.88171ZM20.0043 6.77299L17.3867 5.78044C17.6093 5.27489 18.6361 4.84474 20.0043 4.84333C21.3739 4.84474 22.4007 5.27489 22.6218 5.78044L20.0043 6.77299Z" fill="black"/>
</svg>
