<svg width="100%" height="100%" viewBox="0 0 28 28" fill="none" xmlns="http://www.w3.org/2000/svg">
<path fill-rule="evenodd" clip-rule="evenodd" d="M23.8519 3.11111H4.14815C3.57541 3.11111 3.11111 3.57541 3.11111 4.14815V23.8519C3.11111 24.4246 3.57541 24.8889 4.14815 24.8889H23.8519C24.4246 24.8889 24.8889 24.4246 24.8889 23.8519V4.14815C24.8889 3.57541 24.4246 3.11111 23.8519 3.11111ZM4.14815 0C1.85719 0 0 1.85719 0 4.14815V23.8519C0 26.1428 1.85719 28 4.14815 28H23.8519C26.1428 28 28 26.1428 28 23.8519V4.14815C28 1.85719 26.1428 0 23.8519 0H4.14815Z" fill="#838383"/>
<path d="M10.9809 16.0741L4.14815 23.8519H23.8519L18.2903 10.8889L14.3178 19.5817L10.9809 16.0741Z" fill="#838383"/>
<path fill-rule="evenodd" clip-rule="evenodd" d="M10.9809 16.0741L14.3178 19.5817L18.2903 10.8889L23.8519 23.8519H4.14815L10.9809 16.0741ZM11.0723 20.6839L11.0224 20.7407H11.1264L11.0723 20.6839ZM17.2087 20.7407H19.1317L18.2006 18.5703L17.2087 20.7407Z" fill="#838383"/>
<path fill-rule="evenodd" clip-rule="evenodd" d="M10.8889 11.6667C12.6071 11.6667 14 10.2738 14 8.55556C14 6.83734 12.6071 5.44444 10.8889 5.44444C9.17067 5.44444 7.77778 6.83734 7.77778 8.55556C7.77778 10.2738 9.17067 11.6667 10.8889 11.6667Z" fill="#838383"/>
</svg>
