<svg width="100%" height="100%" viewBox="0 0 38 40" fill="none" xmlns="http://www.w3.org/2000/svg">
<path fill-rule="evenodd" clip-rule="evenodd" d="M10.2885 8.94503C9.39191 9.6515 8.58022 10.4678 7.87415 11.379C6.23826 13.4901 5.23681 16.023 4.98675 18.682C4.73669 21.341 5.24836 24.0163 6.46198 26.3953C6.9858 27.4221 7.63106 28.3755 8.38023 29.2367L8.97871 28.2236C8.39006 27.5064 7.87738 26.7247 7.45175 25.8904C6.33393 23.6992 5.86266 21.2351 6.09298 18.7861C6.32329 16.337 7.24569 14.004 8.75242 12.0596C9.32615 11.3192 9.97557 10.6468 10.6876 10.0519L10.8684 9.89199C11.3406 9.47416 10.8753 8.71433 10.2885 8.94503ZM8.72031 4.59574C7.06563 5.69986 5.59147 7.06884 4.36104 8.65668C2.20856 11.4344 0.890851 14.7672 0.561828 18.2659C0.232806 21.7646 0.906049 25.2846 2.50292 28.4149C3.41575 30.2043 4.60885 31.8241 6.02866 33.2174C7.0911 34.26 8.2805 35.1757 9.57441 35.9407C9.57627 35.9418 9.57812 35.9429 9.57998 35.944L14.6662 27.3341C13.2745 26.5119 12.1454 25.3107 11.4108 23.8707C10.6762 22.4308 10.3665 20.8116 10.5179 19.2022C10.6692 17.5928 11.2754 16.0597 12.2655 14.7819C13.2557 13.5042 14.5889 12.5345 16.1096 11.9862L12.7177 2.57907C11.3016 3.08966 9.96027 3.76833 8.72031 4.59574Z" fill="url(#paint0_linear_3683:23173)"/>
<path fill-rule="evenodd" clip-rule="evenodd" d="M16.3438 17.1218L12.0497 15.9756L14.3879 7.21578L5.62808 4.8776L6.77427 0.583496L19.8282 4.06786L16.3438 17.1218Z" fill="url(#paint1_linear_3683:23173)"/>
<path fill-rule="evenodd" clip-rule="evenodd" d="M27.7006 31.0615C28.5978 30.3557 29.4101 29.54 30.1169 28.6294C31.7545 26.5197 32.758 23.9875 33.0102 21.3288C33.2624 18.67 32.7529 15.9943 31.5411 13.6143C31.0181 12.587 30.3737 11.6332 29.6252 10.7713L29.0259 11.7839C29.614 12.5016 30.126 13.2837 30.551 14.1184C31.667 16.3105 32.1363 18.775 31.904 21.2238C31.6718 23.6727 30.7475 26.005 29.2392 27.9481C28.6649 28.6881 28.0149 29.3599 27.3024 29.9543C26.8244 30.2131 26.9417 30.9298 27.4773 31.0227L27.7006 31.0615ZM29.2653 35.412C30.9209 34.3092 32.3961 32.9414 33.6278 31.3546C35.7826 28.5786 37.1029 25.2468 37.4348 21.7484C37.7666 18.25 37.0962 14.7294 35.5018 11.5978C34.5904 9.80771 33.3986 8.18694 31.9799 6.79254C30.9172 5.74804 29.7272 4.83056 28.4324 4.06406L28.4308 4.06313L23.3376 12.6689L23.3391 12.6698C24.7296 13.4931 25.8572 14.6949 26.5903 16.1349C27.3237 17.5754 27.6321 19.1949 27.4795 20.8042C27.3268 22.4134 26.7194 23.946 25.7283 25.223C24.7371 26.4999 23.4031 27.4685 21.882 28.0156L25.2663 37.4255C25.2675 37.4251 25.2687 37.4247 25.2699 37.4242C26.685 36.9149 28.0257 36.2378 29.2653 35.412Z" fill="url(#paint2_linear_3683:23173)"/>
<path fill-rule="evenodd" clip-rule="evenodd" d="M21.6542 22.8778L25.9483 24.024L23.6101 32.7837L32.3699 35.1219L31.2237 39.416L18.1698 35.9317L21.6542 22.8778Z" fill="url(#paint3_linear_3683:23173)"/>
<defs>
<linearGradient id="paint0_linear_3683:23173" x1="18.999" y1="0.583496" x2="18.999" y2="39.416" gradientUnits="userSpaceOnUse">
<stop stop-color="#291AD5"/>
<stop offset="1" stop-color="#681DE1"/>
</linearGradient>
<linearGradient id="paint1_linear_3683:23173" x1="18.999" y1="0.583496" x2="18.999" y2="39.416" gradientUnits="userSpaceOnUse">
<stop stop-color="#291AD5"/>
<stop offset="1" stop-color="#681DE1"/>
</linearGradient>
<linearGradient id="paint2_linear_3683:23173" x1="18.999" y1="0.583496" x2="18.999" y2="39.416" gradientUnits="userSpaceOnUse">
<stop stop-color="#291AD5"/>
<stop offset="1" stop-color="#681DE1"/>
</linearGradient>
<linearGradient id="paint3_linear_3683:23173" x1="18.999" y1="0.583496" x2="18.999" y2="39.416" gradientUnits="userSpaceOnUse">
<stop stop-color="#291AD5"/>
<stop offset="1" stop-color="#681DE1"/>
</linearGradient>
</defs>
</svg>
