<svg width="100%" height="100%" viewBox="0 0 20 20" fill="none" xmlns="http://www.w3.org/2000/svg">
<path fill-rule="evenodd" clip-rule="evenodd" d="M2.873 6.46959L3.80524 17.2177C3.90962 18.7834 5.21005 20 6.77923 20H13.8698C15.4389 20 16.7394 18.7834 16.8438 17.2177L17.776 6.46959H2.873ZM5.26244 8.14618L6.03573 17.069C6.06183 17.4604 6.38694 17.7646 6.77923 17.7646H13.8698C14.262 17.7646 14.5872 17.4604 14.6133 17.069L15.3865 8.14618H5.26244Z" fill="white"/>
<path d="M11.8166 9.88162L12.9316 9.95959L12.5418 15.5346L11.4268 15.4566L11.8166 9.88162Z" fill="white"/>
<path d="M7.71647 9.95959L8.83147 9.88162L9.22131 15.4566L8.10631 15.5346L7.71647 9.95959Z" fill="white"/>
<path d="M0.5 3.88297L19.0834 2.58349L19.2393 4.8135L0.655937 6.11297L0.5 3.88297Z" fill="white"/>
<path fill-rule="evenodd" clip-rule="evenodd" d="M11.2264 2.38594L8.25303 2.59386L8.30501 3.33719L11.2783 3.12927L11.2264 2.38594ZM5.86709 0.51979L6.23094 5.72313L13.6643 5.20334L13.3004 0L5.86709 0.51979Z" fill="white"/>
</svg>
