<svg width="100%" height="100%" viewBox="0 0 22 22" fill="none" xmlns="http://www.w3.org/2000/svg">
<path fill-rule="evenodd" clip-rule="evenodd" d="M11.8891 2.77775H10.1113C6.06124 2.77775 2.77799 6.061 2.77799 10.1111V11.8889C2.77799 15.9389 6.06124 19.2222 10.1113 19.2222H11.8891C15.9392 19.2222 19.2224 15.9389 19.2224 11.8889V10.1111C19.2224 6.061 15.9392 2.77775 11.8891 2.77775ZM10.1113 0.111084C4.58848 0.111084 0.111328 4.58824 0.111328 10.1111V11.8889C0.111328 17.4117 4.58848 21.8889 10.1113 21.8889H11.8891C17.412 21.8889 21.8891 17.4117 21.8891 11.8889V10.1111C21.8891 4.58824 17.412 0.111084 11.8891 0.111084H10.1113Z" fill="url(#paint0_linear)"/>
<path d="M14.3336 5.88886L16.2192 7.77448L11.3303 12.3932L9.44466 10.5076L14.3336 5.88886Z" fill="url(#paint1_linear)"/>
<path d="M9.44468 10.5043H12.1113V15.4444H9.44468V10.5043Z" fill="url(#paint2_linear)"/>
<defs>
<linearGradient id="paint0_linear" x1="11.0002" y1="0.111084" x2="11.0002" y2="21.8889" gradientUnits="userSpaceOnUse">
<stop stop-color="#291AD5"/>
<stop offset="1" stop-color="#681DE1"/>
</linearGradient>
<linearGradient id="paint1_linear" x1="11.0002" y1="0.111084" x2="11.0002" y2="21.8889" gradientUnits="userSpaceOnUse">
<stop stop-color="#291AD5"/>
<stop offset="1" stop-color="#681DE1"/>
</linearGradient>
<linearGradient id="paint2_linear" x1="11.0002" y1="0.111084" x2="11.0002" y2="21.8889" gradientUnits="userSpaceOnUse">
<stop stop-color="#291AD5"/>
<stop offset="1" stop-color="#681DE1"/>
</linearGradient>
</defs>
</svg>
